<?xml version="1.0" encoding="UTF-8"?>
<svg id="Layer_2" xmlns="http://www.w3.org/2000/svg" xmlns:xlink="http://www.w3.org/1999/xlink" viewBox="0 0 150.65 150.65">
  <defs>
    <style>
      .cls-1 {
        fill: none;
      }

      .cls-2 {
        fill: #21304a;
      }

      .cls-3 {
        fill: url(#New_Pattern_7);
      }
    </style>
    <pattern id="New_Pattern_7" data-name="New Pattern 7" x="0" y="0" width="50.19" height="50.18" patternTransform="translate(-401.24 .54)" patternUnits="userSpaceOnUse" viewBox="0 0 50.19 50.18">
      <g>
        <rect class="cls-1" y="0" width="50.19" height="50.18"/>
        <path class="cls-2" d="M101.18,49.37v51.6h-51.91v-51.6h51.91ZM77.58,51.14c.09.06.18.13.27.19,1.71,1.15,3.4,2.32,5.09,3.49.73.51,1.46,1.03,2.21,1.51.09.06.18.09.29.07.39-.06.79-.11,1.18-.15.92-.1,1.84-.2,2.76-.3.88-.09,1.76-.14,2.64-.23.41-.04.83-.09,1.23-.17.17-.04.31-.11.44-.24,1.3-1.31,2.6-2.61,3.89-3.91.03-.03.07-.05.09-.13-6.71-.06-13.4-.11-20.1-.17,0,.01,0,.02,0,.04ZM92.22,84.12c.3-.43.58-.87.87-1.31.14-.22.15-.13,0-.36-1.47-2.16-2.94-4.33-4.43-6.48-.33-.49-.35-1.18,0-1.61.02-.03.04-.06.06-.09,1.47-2.15,2.93-4.3,4.4-6.45.11-.17.11-.11,0-.28-.28-.43-.56-.86-.86-1.28-.25-.35-.33-.74-.3-1.16.03-.42.1-.84.15-1.27.07-.57.13-1.14.2-1.72.08-.75.16-1.49.23-2.24.05-.5.08-1,.13-1.5.02-.2.06-.4.05-.6-.12-.02-.21.01-.31.02-.91.1-1.82.14-2.73.24-.72.07-1.44.16-2.17.23-.7.07-1.39.16-2.09.25-.43.05-.84-.02-1.2-.27-.44-.3-.89-.59-1.33-.88-.13-.09-.13-.09-.27,0-.29.19-.58.39-.87.59-1.9,1.28-3.81,2.56-5.71,3.85-.35.24-.71.3-1.12.22-.2-.04-.36-.15-.51-.25-2.18-1.47-4.36-2.94-6.54-4.41q-.14-.09-.28,0c-.47.32-.95.64-1.44.94-.18.11-.37.17-.57.2-.27.03-.54,0-.81-.03-.52-.06-1.03-.13-1.55-.19-.72-.08-1.44-.16-2.16-.23-.46-.04-.92-.1-1.38-.13-.35-.02-.69-.06-1.03-.09-.29-.02-.57-.05-.88-.08,0,.07,0,.11.01.16.04.42.08.84.12,1.25.03.31.04.62.07.92.08.74.16,1.48.24,2.22.06.57.13,1.13.2,1.7.04.38.11.76.13,1.15.02.37-.05.71-.27,1.03-.3.44-.6.89-.89,1.34-.12.18-.12.12,0,.28,1,1.47,2,2.94,3.01,4.41.49.72.98,1.45,1.48,2.17.15.22.23.46.24.73,0,.32-.1.59-.28.85-1.48,2.17-2.97,4.34-4.45,6.52-.11.16-.11.12,0,.27.32.46.62.93.93,1.4.15.23.23.47.23.74,0,.09,0,.19,0,.28-.03.44-.1.87-.15,1.3-.07.58-.14,1.17-.2,1.75-.08.75-.16,1.5-.23,2.26-.05.61-.1,1.22-.16,1.83,0,.07-.03.15,0,.22.44-.04.88-.1,1.32-.12.73-.04,1.45-.12,2.17-.19,1.24-.13,2.48-.27,3.72-.43.48-.06.93,0,1.34.3.42.3.86.57,1.28.85.15.1.12.09.26,0,.67-.45,1.34-.9,2.01-1.35,1.54-1.04,3.09-2.07,4.62-3.12.42-.28,1.12-.31,1.52,0,.03.03.07.05.1.07,2.17,1.46,4.34,2.93,6.51,4.39.18.12.12.11.3,0,.47-.32.94-.63,1.42-.93.19-.12.39-.19.61-.21.2-.01.4-.01.6.01.61.08,1.22.16,1.83.22.74.08,1.48.16,2.22.24.41.04.82.09,1.22.11.5.04,1,.08,1.5.13.13.01.26.03.41.04,0-.06,0-.12,0-.17-.04-.41-.08-.82-.12-1.23-.03-.31-.04-.63-.07-.94-.07-.72-.15-1.45-.23-2.17-.06-.58-.14-1.16-.2-1.74-.04-.39-.11-.77-.13-1.16-.02-.36.05-.7.26-1.01ZM59.71,75.28c.06-.09.05-.15,0-.23-1.23-1.8-2.46-3.6-3.69-5.4-.02-.03-.03-.06-.08-.07-.05.08-.11.15-.17.24-.89,1.26-1.76,2.52-2.63,3.79-.18.26-.37.52-.56.78-.2.27-.41.54-.65.78.15.15.28.3.4.45.32.41.62.82.91,1.25.86,1.25,1.72,2.51,2.6,3.75.04.05.06.12.13.15.02-.03.04-.06.06-.08,1.23-1.8,2.46-3.6,3.69-5.4ZM94.42,80.62s.06.1.1.13c.05-.02.07-.07.09-.11.21-.29.41-.58.62-.87.71-1.02,1.41-2.05,2.11-3.07.37-.54.74-1.07,1.2-1.55-.14-.14-.27-.28-.39-.43-.31-.4-.61-.81-.9-1.23-.87-1.26-1.73-2.53-2.62-3.78-.04-.05-.06-.11-.13-.15-.02.03-.04.05-.06.08-1.23,1.8-2.46,3.6-3.69,5.4-.08.11-.08.11.01.24,1.21,1.78,2.42,3.55,3.64,5.33ZM73.55,53.28c-1.22.82-2.44,1.65-3.65,2.49-.1.07-.2.14-.3.21.04.05.09.08.13.11,1.79,1.21,3.58,2.42,5.38,3.63.16.11.12.09.27,0,1.78-1.2,3.55-2.4,5.33-3.6.05-.04.11-.06.15-.12-.03-.05-.08-.07-.12-.1-1.19-.84-2.41-1.65-3.61-2.48-.63-.43-1.28-.84-1.84-1.37-.04-.04-.07-.04-.12,0-.12.12-.26.24-.39.35-.4.31-.82.61-1.24.89ZM52.76,51.28c.06.06.09.1.12.13,1.29,1.3,2.59,2.6,3.88,3.9.13.13.28.21.47.25.66.13,1.33.18,2,.24.37.03.74.04,1.1.08.72.08,1.43.14,2.15.22.85.1,1.71.19,2.56.3.1.01.18,0,.26-.06.29-.19.58-.38.86-.57,1.17-.81,2.33-1.62,3.5-2.43,1.02-.7,2.05-1.4,3.07-2.09.05-.04.1-.08.16-.12,0,0,0-.02,0-.03-6.7.06-13.39.11-20.13.17ZM51.04,72.83s.03,0,.04,0c.06-.09.13-.18.19-.27,1.08-1.59,2.18-3.16,3.28-4.73.59-.84,1.2-1.66,1.75-2.53.06-.09.08-.17.07-.28-.05-.39-.1-.77-.15-1.16-.05-.47-.1-.94-.16-1.41-.1-.81-.18-1.62-.25-2.43-.06-.69-.11-1.38-.19-2.07-.03-.28-.07-.56-.14-.83-.03-.1-.07-.19-.15-.27-1.34-1.32-2.68-2.64-4.02-3.96-.03-.03-.04-.07-.1-.05-.06,6.66-.11,13.31-.17,19.96ZM51.33,97.39c1.32-1.3,2.65-2.61,3.97-3.91.1-.09.15-.2.19-.33.09-.34.12-.69.16-1.03.11-.92.15-1.86.25-2.78.08-.71.16-1.42.23-2.13.07-.64.15-1.27.23-1.91.02-.11-.01-.2-.07-.29-.42-.64-.86-1.26-1.3-1.89-1.24-1.76-2.47-3.52-3.68-5.3-.07-.11-.15-.22-.23-.33-.01,0-.03,0-.04,0,.06,6.65.11,13.31.17,19.97.07,0,.09-.05.12-.08ZM72.91,99.19c-.15-.1-.29-.2-.44-.3-1.28-.86-2.55-1.74-3.82-2.61-1.11-.76-2.19-1.56-3.32-2.29-.09-.06-.17-.08-.28-.07-.81.11-1.62.2-2.42.29-.72.08-1.43.15-2.15.23-.71.07-1.42.1-2.13.18-.38.04-.77.08-1.15.17-.16.04-.29.11-.4.22-1.3,1.31-2.6,2.62-3.91,3.92-.03.03-.07.06-.09.12,6.71.06,13.4.11,20.1.17,0,0,.01-.02.02-.04ZM76.88,97.09c1.28-.87,2.55-1.73,3.82-2.61.06-.04.13-.08.18-.14-.04-.03-.07-.05-.1-.07-1.81-1.22-3.61-2.44-5.42-3.66-.14-.09-.1-.09-.26.02-1.78,1.2-3.57,2.4-5.35,3.61-.05.03-.1.06-.14.11.03.05.09.08.13.11,1.25.88,2.52,1.74,3.79,2.6.57.38,1.14.76,1.63,1.23.05.04.08.06.13,0,.48-.46,1.03-.83,1.58-1.2ZM97.71,99.05s-.06-.07-.08-.09c-1.32-1.33-2.64-2.65-3.96-3.98-.1-.1-.21-.16-.34-.19-.28-.07-.56-.1-.85-.14-1-.13-2.02-.17-3.02-.28-.84-.09-1.69-.19-2.53-.28-.5-.05-1-.12-1.5-.19-.1-.01-.18,0-.26.06-.3.21-.62.4-.92.61-2.14,1.5-4.3,2.99-6.47,4.45-.07.05-.13.09-.2.14,0,.01,0,.03.01.04,6.7-.06,13.4-.11,20.12-.17ZM99.43,77.52s0,0,0-.01c-.02-.01,0,.02-.02-.02-.1.15-.2.29-.3.43-1.23,1.81-2.49,3.61-3.75,5.4-.39.56-.79,1.12-1.16,1.69-.06.09-.09.18-.08.29.05.29.08.58.11.87.06.55.12,1.11.19,1.66.09.73.16,1.47.23,2.21.07.68.1,1.36.18,2.03.04.37.08.74.17,1.1.03.12.09.22.18.31,1.33,1.3,2.65,2.6,3.97,3.91.03.03.05.08.13.08.05-6.66.1-13.31.15-19.96ZM99.44,72.83c-.06-6.65-.11-13.31-.17-19.97-.07.01-.09.06-.12.09-1.32,1.3-2.64,2.6-3.96,3.89-.11.1-.17.22-.2.36-.08.34-.12.68-.16,1.02-.11.91-.15,1.83-.25,2.75-.09.82-.18,1.64-.27,2.46-.06.54-.13,1.09-.2,1.63-.01.09,0,.17.06.25.27.39.52.79.79,1.17.75,1.07,1.52,2.14,2.26,3.22.67.97,1.34,1.94,2,2.91.06.08.12.16.17.25.01,0,.02,0,.03-.01Z"/>
        <path class="cls-2" d="M51,49.37v51.6H-.92v-51.6h51.92ZM27.39,51.14c.09.06.18.13.27.19,1.71,1.15,3.4,2.32,5.09,3.49.73.51,1.46,1.03,2.21,1.51.09.06.18.09.29.07.39-.06.79-.11,1.18-.15.92-.1,1.84-.2,2.76-.3.88-.09,1.76-.14,2.64-.23.41-.04.83-.09,1.23-.17.17-.04.31-.11.44-.24,1.3-1.31,2.6-2.61,3.89-3.91.03-.03.07-.05.09-.13-6.71-.06-13.4-.11-20.1-.17,0,.01,0,.02,0,.04ZM42.04,84.12c.3-.43.58-.87.87-1.31.14-.22.15-.13,0-.36-1.47-2.16-2.94-4.33-4.43-6.48-.34-.49-.35-1.18,0-1.61.02-.03.04-.06.06-.09,1.47-2.15,2.93-4.3,4.4-6.45.11-.17.11-.11,0-.28-.28-.43-.56-.86-.86-1.28-.25-.35-.33-.74-.3-1.16.03-.42.1-.84.15-1.27.07-.57.13-1.14.19-1.72.08-.75.16-1.49.23-2.24.05-.5.08-1,.13-1.5.02-.2.06-.4.05-.6-.12-.02-.21.01-.31.02-.91.1-1.82.14-2.73.24-.72.07-1.44.16-2.17.23-.7.07-1.39.16-2.09.25-.43.05-.84-.02-1.2-.27-.44-.3-.89-.59-1.33-.88q-.13-.09-.27,0c-.29.19-.58.39-.87.59-1.9,1.28-3.81,2.56-5.71,3.85-.35.24-.71.3-1.12.22-.19-.04-.35-.15-.51-.25-2.18-1.47-4.36-2.94-6.54-4.41q-.14-.09-.28,0c-.47.32-.95.64-1.44.94-.18.11-.37.17-.57.2-.27.03-.54,0-.81-.03-.52-.06-1.03-.13-1.55-.19-.72-.08-1.44-.16-2.16-.23-.46-.04-.92-.1-1.38-.13-.34-.02-.69-.06-1.03-.09-.29-.02-.57-.05-.88-.08,0,.07,0,.11.01.16.04.42.08.84.12,1.25.03.31.04.62.07.92.08.74.16,1.48.24,2.22.06.57.13,1.13.2,1.7.04.38.11.76.13,1.15.02.37-.05.71-.27,1.03-.3.44-.6.89-.89,1.34-.12.18-.12.12,0,.28,1,1.47,2,2.94,3.01,4.41.49.72.98,1.45,1.48,2.17.15.22.23.46.24.73,0,.32-.1.59-.28.85-1.49,2.17-2.97,4.34-4.45,6.52-.11.16-.1.12,0,.27.32.46.63.93.93,1.4.15.23.23.47.23.74,0,.09,0,.19,0,.28-.03.44-.1.87-.15,1.3-.07.58-.14,1.17-.2,1.75-.08.75-.16,1.5-.23,2.26-.05.61-.1,1.22-.16,1.83,0,.07-.03.15,0,.22.44-.04.88-.1,1.32-.12.73-.04,1.45-.12,2.17-.19,1.24-.13,2.48-.27,3.72-.43.48-.06.93,0,1.34.3.42.3.86.57,1.28.85.15.1.12.09.26,0,.67-.45,1.34-.9,2.01-1.35,1.54-1.04,3.09-2.07,4.62-3.12.42-.28,1.12-.31,1.52,0,.03.03.07.05.1.07,2.17,1.46,4.34,2.93,6.51,4.39.18.12.13.11.3,0,.47-.32.94-.63,1.42-.93.19-.12.39-.19.61-.21.2-.01.4-.01.6.01.61.08,1.22.16,1.83.22.74.08,1.48.16,2.22.24.41.04.82.09,1.22.11.5.04,1,.08,1.5.13.13.01.26.03.41.04,0-.06,0-.12,0-.17-.04-.41-.08-.82-.12-1.23-.03-.31-.04-.63-.07-.94-.07-.72-.15-1.45-.23-2.17-.06-.58-.14-1.16-.2-1.74-.04-.39-.11-.77-.13-1.16-.02-.36.05-.7.26-1.01ZM9.53,75.28c.06-.09.05-.15,0-.23-1.23-1.8-2.46-3.6-3.69-5.4-.02-.03-.03-.06-.08-.07-.05.08-.11.15-.17.24-.89,1.26-1.76,2.52-2.63,3.79-.18.26-.37.52-.56.78-.2.27-.41.54-.65.78.15.15.28.3.4.45.32.41.61.82.9,1.25.86,1.25,1.72,2.51,2.6,3.75.04.05.06.12.13.15.02-.03.04-.06.06-.08,1.23-1.8,2.46-3.6,3.69-5.4ZM44.24,80.62s.06.1.1.13c.05-.02.07-.07.09-.11.21-.29.41-.58.62-.87.71-1.02,1.41-2.05,2.11-3.07.37-.54.74-1.07,1.2-1.55-.14-.14-.27-.28-.39-.43-.31-.4-.61-.81-.9-1.23-.87-1.26-1.73-2.53-2.62-3.78-.04-.05-.06-.11-.13-.15-.02.03-.04.05-.06.08-1.23,1.8-2.46,3.6-3.69,5.4-.08.11-.08.11.01.24,1.21,1.78,2.42,3.55,3.64,5.33ZM23.37,53.28c-1.22.82-2.44,1.65-3.64,2.49-.1.07-.2.14-.3.21.04.05.08.08.13.11,1.79,1.21,3.58,2.42,5.38,3.63.16.11.12.09.27,0,1.78-1.2,3.55-2.4,5.33-3.6.05-.04.11-.06.15-.12-.03-.05-.08-.07-.12-.1-1.19-.84-2.41-1.65-3.61-2.48-.63-.43-1.28-.84-1.84-1.37-.04-.04-.07-.04-.11,0-.12.12-.26.24-.39.35-.4.31-.82.61-1.24.89ZM2.58,51.28c.06.06.09.1.12.13,1.29,1.3,2.59,2.6,3.88,3.9.13.13.28.21.47.25.66.13,1.33.18,2,.24.37.03.74.04,1.1.08.72.08,1.43.14,2.15.22.85.1,1.71.19,2.56.3.1.01.18,0,.26-.06.29-.19.58-.38.86-.57,1.17-.81,2.33-1.62,3.5-2.43,1.02-.7,2.05-1.4,3.07-2.09.05-.04.1-.08.16-.12,0,0,0-.02-.01-.03-6.7.06-13.39.11-20.13.17ZM.85,72.83s.03,0,.04,0c.06-.09.13-.18.19-.27,1.08-1.59,2.18-3.16,3.28-4.73.59-.84,1.2-1.66,1.75-2.53.06-.09.08-.17.07-.28-.05-.39-.1-.77-.15-1.16-.05-.47-.1-.94-.16-1.41-.1-.81-.18-1.62-.25-2.43-.06-.69-.11-1.38-.19-2.07-.03-.28-.07-.56-.14-.83-.03-.1-.07-.19-.15-.27-1.34-1.32-2.68-2.64-4.02-3.96-.03-.03-.04-.07-.1-.05-.06,6.66-.11,13.31-.17,19.96ZM1.14,97.39c1.32-1.3,2.65-2.61,3.97-3.91.1-.09.15-.2.19-.33.09-.34.12-.69.16-1.03.11-.92.15-1.86.25-2.78.08-.71.16-1.42.23-2.13.07-.64.15-1.27.23-1.91.02-.11-.01-.2-.07-.29-.42-.64-.86-1.26-1.3-1.89-1.24-1.76-2.47-3.52-3.68-5.3-.08-.11-.15-.22-.23-.33-.01,0-.03,0-.04,0,.06,6.65.11,13.31.17,19.97.07,0,.09-.05.12-.08ZM22.72,99.19c-.15-.1-.29-.2-.44-.3-1.28-.86-2.55-1.74-3.82-2.61-1.11-.76-2.19-1.56-3.32-2.29-.09-.06-.17-.08-.28-.07-.81.11-1.62.2-2.42.29-.72.08-1.43.15-2.15.23-.71.07-1.42.1-2.13.18-.38.04-.77.08-1.15.17-.16.04-.29.11-.4.22-1.3,1.31-2.6,2.62-3.91,3.92-.03.03-.07.06-.09.12,6.71.06,13.4.11,20.1.17,0,0,.01-.02.02-.04ZM26.69,97.09c1.28-.87,2.55-1.73,3.82-2.61.06-.04.13-.08.18-.14-.04-.03-.07-.05-.1-.07-1.81-1.22-3.61-2.44-5.42-3.66-.14-.09-.1-.09-.26.02-1.78,1.2-3.57,2.4-5.35,3.61-.05.03-.1.06-.14.11.03.05.09.08.13.11,1.25.88,2.52,1.74,3.79,2.6.57.38,1.14.76,1.63,1.23.05.04.08.06.13,0,.48-.46,1.03-.83,1.58-1.2ZM47.53,99.05s-.06-.07-.08-.09c-1.32-1.33-2.64-2.65-3.96-3.98-.1-.1-.21-.16-.34-.19-.28-.07-.56-.1-.85-.14-1-.13-2.02-.17-3.02-.28-.84-.09-1.69-.19-2.53-.28-.5-.05-1-.12-1.5-.19-.1-.01-.18,0-.26.06-.3.21-.62.4-.92.61-2.14,1.5-4.3,2.99-6.47,4.45-.07.05-.13.09-.2.14,0,.01,0,.03.01.04,6.7-.06,13.4-.11,20.12-.17ZM49.25,77.52s0,0,0-.01c-.02-.01,0,.02-.02-.02-.1.15-.2.29-.3.43-1.23,1.81-2.49,3.61-3.75,5.4-.39.56-.79,1.12-1.16,1.69-.06.09-.09.18-.08.29.05.29.08.58.11.87.06.55.12,1.11.19,1.66.09.73.16,1.47.23,2.21.07.68.1,1.36.18,2.03.04.37.08.74.17,1.1.03.12.09.22.18.31,1.33,1.3,2.65,2.6,3.97,3.91.03.03.05.08.13.08.05-6.66.1-13.31.15-19.96ZM49.25,72.83c-.06-6.65-.11-13.31-.17-19.97-.07.01-.09.06-.12.09-1.32,1.3-2.64,2.6-3.96,3.89-.11.1-.17.22-.2.36-.08.34-.12.68-.16,1.02-.11.91-.15,1.83-.25,2.75-.09.82-.18,1.64-.27,2.46-.06.54-.13,1.09-.2,1.63-.01.09,0,.17.06.25.27.39.52.79.79,1.17.75,1.07,1.52,2.14,2.26,3.22.67.97,1.34,1.94,2,2.91.06.08.12.16.17.25.01,0,.02,0,.03-.01Z"/>
        <path class="cls-2" d="M.81,49.37v51.6h-51.91v-51.6H.81ZM-22.8,51.14c.09.06.18.13.27.19,1.71,1.15,3.4,2.32,5.09,3.49.73.51,1.46,1.03,2.21,1.51.09.06.18.09.29.07.39-.06.79-.11,1.18-.15.92-.1,1.84-.2,2.76-.3.88-.09,1.76-.14,2.64-.23.41-.04.83-.09,1.23-.17.17-.04.31-.11.44-.24,1.3-1.31,2.6-2.61,3.89-3.91.03-.03.07-.05.09-.13-6.71-.06-13.4-.11-20.1-.17,0,.01,0,.02,0,.04ZM-8.15,84.12c.3-.43.58-.87.87-1.31.14-.22.15-.13,0-.36-1.47-2.16-2.94-4.33-4.43-6.48-.34-.49-.35-1.18,0-1.61.02-.03.04-.06.06-.09,1.47-2.15,2.93-4.3,4.4-6.45.11-.17.11-.11,0-.28-.28-.43-.56-.86-.86-1.28-.25-.35-.33-.74-.3-1.16.03-.42.1-.84.15-1.27.07-.57.13-1.14.19-1.72.08-.75.16-1.49.23-2.24.05-.5.08-1,.13-1.5.02-.2.06-.4.05-.6-.12-.02-.21.01-.31.02-.91.1-1.82.14-2.73.24-.72.07-1.44.16-2.16.23-.7.07-1.39.16-2.09.25-.43.05-.84-.02-1.2-.27-.44-.3-.89-.59-1.33-.88q-.13-.09-.27,0c-.29.19-.58.39-.87.59-1.9,1.28-3.81,2.56-5.71,3.85-.35.24-.71.3-1.12.22-.19-.04-.35-.15-.51-.25-2.18-1.47-4.36-2.94-6.54-4.41q-.14-.09-.28,0c-.47.32-.95.64-1.44.94-.18.11-.37.17-.57.2-.27.03-.54,0-.81-.03-.52-.06-1.03-.13-1.55-.19-.72-.08-1.44-.16-2.17-.23-.46-.04-.92-.1-1.38-.13-.34-.02-.69-.06-1.03-.09-.29-.02-.57-.05-.88-.08,0,.07,0,.11.01.16.04.42.08.84.12,1.25.03.31.04.62.07.92.08.74.16,1.48.24,2.22.06.57.13,1.13.2,1.7.04.38.11.76.13,1.15.02.37-.05.71-.27,1.03-.3.44-.6.89-.89,1.34-.12.18-.12.12,0,.28,1,1.47,2,2.94,3.01,4.41.49.72.98,1.45,1.48,2.17.15.22.23.46.24.73,0,.32-.1.59-.28.85-1.49,2.17-2.97,4.34-4.45,6.52-.11.16-.1.12,0,.27.32.46.63.93.93,1.4.15.23.23.47.23.74,0,.09,0,.19,0,.28-.03.44-.1.87-.15,1.3-.07.58-.14,1.17-.2,1.75-.08.75-.16,1.5-.23,2.26-.05.61-.1,1.22-.16,1.83,0,.07-.03.15,0,.22.44-.04.88-.1,1.32-.12.73-.04,1.45-.12,2.17-.19,1.24-.13,2.48-.27,3.72-.43.48-.06.93,0,1.34.3.42.3.86.57,1.28.85.15.1.12.09.26,0,.67-.45,1.34-.9,2.01-1.35,1.54-1.04,3.09-2.07,4.62-3.12.42-.28,1.12-.31,1.52,0,.03.03.07.05.1.07,2.17,1.46,4.34,2.93,6.51,4.39.18.12.13.11.3,0,.47-.32.94-.63,1.42-.93.19-.12.39-.19.61-.21.2-.01.4-.01.6.01.61.08,1.22.16,1.83.22.74.08,1.48.16,2.22.24.41.04.82.09,1.22.11.5.04,1,.08,1.5.13.13.01.26.03.41.04,0-.06,0-.12,0-.17-.04-.41-.08-.82-.12-1.23-.03-.31-.04-.63-.07-.94-.07-.72-.15-1.45-.23-2.17-.06-.58-.14-1.16-.2-1.74-.04-.39-.11-.77-.13-1.16-.02-.36.05-.7.26-1.01ZM-40.66,75.28c.06-.09.05-.15,0-.23-1.23-1.8-2.46-3.6-3.69-5.4-.02-.03-.03-.06-.08-.07-.05.08-.11.15-.17.24-.89,1.26-1.76,2.52-2.63,3.79-.18.26-.37.52-.56.78-.2.27-.41.54-.65.78.15.15.28.3.4.45.32.41.61.82.9,1.25.86,1.25,1.72,2.51,2.6,3.75.04.05.06.12.13.15.02-.03.04-.06.06-.08,1.23-1.8,2.46-3.6,3.69-5.4ZM-5.95,80.62s.06.1.1.13c.05-.02.07-.07.09-.11.21-.29.42-.58.62-.87.71-1.02,1.41-2.05,2.11-3.07.37-.54.74-1.07,1.2-1.55-.14-.14-.27-.28-.39-.43-.31-.4-.61-.81-.9-1.23-.87-1.26-1.73-2.53-2.62-3.78-.04-.05-.06-.11-.13-.15-.02.03-.04.05-.06.08-1.23,1.8-2.46,3.6-3.69,5.4-.08.11-.08.11.01.24,1.21,1.78,2.42,3.55,3.64,5.33ZM-26.82,53.28c-1.22.82-2.44,1.65-3.65,2.49-.1.07-.2.14-.3.21.04.05.09.08.13.11,1.79,1.21,3.58,2.42,5.38,3.63.16.11.12.09.27,0,1.78-1.2,3.55-2.4,5.33-3.6.05-.04.11-.06.15-.12-.03-.05-.08-.07-.12-.1-1.19-.84-2.41-1.65-3.61-2.48-.63-.43-1.28-.84-1.84-1.37-.04-.04-.07-.04-.11,0-.12.12-.26.24-.39.35-.4.31-.82.61-1.24.89ZM-47.61,51.28c.06.06.09.1.12.13,1.29,1.3,2.59,2.6,3.88,3.9.13.13.28.21.47.25.66.13,1.33.18,2,.24.37.03.74.04,1.1.08.72.08,1.43.14,2.15.22.85.1,1.71.19,2.56.3.1.01.18,0,.26-.06.29-.19.58-.38.86-.57,1.17-.81,2.33-1.62,3.5-2.43,1.02-.7,2.05-1.4,3.07-2.09.05-.04.1-.08.16-.12,0,0,0-.02-.01-.03-6.7.06-13.39.11-20.13.17ZM-49.33,72.83s.03,0,.04,0c.06-.09.13-.18.19-.27,1.08-1.59,2.18-3.16,3.28-4.73.59-.84,1.2-1.66,1.75-2.53.06-.09.08-.17.07-.28-.05-.39-.1-.77-.15-1.16-.05-.47-.1-.94-.16-1.41-.1-.81-.18-1.62-.25-2.43-.06-.69-.11-1.38-.19-2.07-.03-.28-.07-.56-.14-.83-.03-.1-.07-.19-.15-.27-1.34-1.32-2.68-2.64-4.02-3.96-.03-.03-.04-.07-.1-.05-.06,6.66-.11,13.31-.17,19.96ZM-49.04,97.39c1.32-1.3,2.65-2.61,3.97-3.91.1-.09.15-.2.19-.33.09-.34.12-.69.17-1.03.11-.92.15-1.86.25-2.78.08-.71.16-1.42.23-2.13.07-.64.15-1.27.23-1.91.02-.11-.01-.2-.07-.29-.42-.64-.86-1.26-1.3-1.89-1.24-1.76-2.47-3.52-3.68-5.3-.08-.11-.15-.22-.23-.33-.01,0-.03,0-.04,0,.06,6.65.11,13.31.17,19.97.07,0,.09-.05.12-.08ZM-27.46,99.19c-.15-.1-.29-.2-.44-.3-1.28-.86-2.55-1.74-3.82-2.61-1.11-.76-2.19-1.56-3.32-2.29-.09-.06-.17-.08-.28-.07-.81.11-1.62.2-2.42.29-.72.08-1.43.15-2.15.23-.71.07-1.42.1-2.13.18-.38.04-.77.08-1.15.17-.16.04-.29.11-.4.22-1.3,1.31-2.6,2.62-3.91,3.92-.03.03-.07.06-.09.12,6.71.06,13.4.11,20.1.17,0,0,.01-.02.02-.04ZM-23.49,97.09c1.28-.87,2.55-1.73,3.82-2.61.06-.04.13-.08.18-.14-.04-.03-.07-.05-.1-.07-1.81-1.22-3.61-2.44-5.42-3.66-.14-.09-.1-.09-.26.02-1.78,1.2-3.57,2.4-5.35,3.61-.05.03-.1.06-.14.11.03.05.09.08.13.11,1.25.88,2.52,1.74,3.79,2.6.57.38,1.14.76,1.63,1.23.05.04.08.06.13,0,.48-.46,1.03-.83,1.58-1.2ZM-2.66,99.05s-.06-.07-.08-.09c-1.32-1.33-2.64-2.65-3.96-3.98-.1-.1-.21-.16-.34-.19-.28-.07-.56-.1-.85-.14-1-.13-2.02-.17-3.02-.28-.84-.09-1.69-.19-2.53-.28-.5-.05-1-.12-1.5-.19-.1-.01-.18,0-.26.06-.3.21-.62.4-.92.61-2.14,1.5-4.3,2.99-6.47,4.45-.07.05-.13.09-.2.14,0,.01,0,.03.01.04,6.7-.06,13.4-.11,20.12-.17ZM-.94,77.52s0,0,0-.01c-.02-.01,0,.02-.02-.02-.1.15-.2.29-.3.43-1.23,1.81-2.49,3.61-3.75,5.4-.39.56-.79,1.12-1.16,1.69-.06.09-.09.18-.08.29.05.29.08.58.11.87.06.55.12,1.11.19,1.66.09.73.16,1.47.23,2.21.07.68.1,1.36.18,2.03.04.37.08.74.17,1.1.03.12.09.22.18.31,1.33,1.3,2.65,2.6,3.97,3.91.03.03.05.08.13.08.05-6.66.1-13.31.15-19.96ZM-.93,72.83c-.06-6.65-.11-13.31-.17-19.97-.07.01-.09.06-.12.09-1.32,1.3-2.64,2.6-3.96,3.89-.11.1-.17.22-.2.36-.08.34-.12.68-.16,1.02-.11.91-.15,1.83-.25,2.75-.09.82-.18,1.64-.27,2.46-.06.54-.13,1.09-.2,1.63-.01.09,0,.17.06.25.27.39.52.79.79,1.17.75,1.07,1.52,2.14,2.26,3.22.67.97,1.34,1.94,2,2.91.06.08.12.16.17.25.01,0,.02,0,.03-.01Z"/>
        <path class="cls-2" d="M101.18-.81v51.6h-51.91V-.81h51.91ZM77.58.96c.09.06.18.13.27.19,1.71,1.15,3.4,2.32,5.09,3.49.73.51,1.46,1.03,2.21,1.51.09.06.18.09.29.07.39-.06.79-.11,1.18-.15.92-.1,1.84-.2,2.76-.3.88-.09,1.76-.14,2.64-.23.41-.04.83-.09,1.23-.17.17-.04.31-.11.44-.24,1.3-1.31,2.6-2.61,3.89-3.91.03-.03.07-.05.09-.13-6.71-.06-13.4-.11-20.1-.17,0,.01,0,.02,0,.04ZM92.22,33.94c.3-.43.58-.87.87-1.31.14-.22.15-.13,0-.36-1.47-2.16-2.94-4.33-4.43-6.48-.33-.49-.35-1.18,0-1.61.02-.03.04-.06.06-.09,1.47-2.15,2.93-4.3,4.4-6.45.11-.17.11-.11,0-.28-.28-.43-.56-.86-.86-1.28-.25-.35-.33-.74-.3-1.16.03-.42.1-.84.15-1.27.07-.57.13-1.14.2-1.72.08-.75.16-1.49.23-2.24.05-.5.08-1,.13-1.5.02-.2.06-.4.05-.6-.12-.02-.21.01-.31.02-.91.1-1.82.14-2.73.24-.72.07-1.44.16-2.17.23-.7.07-1.39.16-2.09.25-.43.05-.84-.02-1.2-.27-.44-.3-.89-.59-1.33-.88-.13-.09-.13-.09-.27,0-.29.19-.58.39-.87.59-1.9,1.28-3.81,2.56-5.71,3.85-.35.24-.71.3-1.12.22-.2-.04-.36-.15-.51-.25-2.18-1.47-4.36-2.94-6.54-4.41q-.14-.09-.28,0c-.47.32-.95.64-1.44.94-.18.11-.37.17-.57.2-.27.03-.54,0-.81-.03-.52-.06-1.03-.13-1.55-.19-.72-.08-1.44-.16-2.16-.23-.46-.04-.92-.1-1.38-.13-.35-.02-.69-.06-1.03-.09-.29-.02-.57-.05-.88-.08,0,.07,0,.11.01.16.04.42.08.84.12,1.25.03.31.04.62.07.92.08.74.16,1.48.24,2.22.06.57.13,1.13.2,1.7.04.38.11.76.13,1.15.02.37-.05.71-.27,1.03-.3.44-.6.89-.89,1.34-.12.18-.12.12,0,.28,1,1.47,2,2.94,3.01,4.41.49.72.98,1.45,1.48,2.17.15.22.23.46.24.73,0,.32-.1.59-.28.85-1.48,2.17-2.97,4.34-4.45,6.52-.11.16-.11.12,0,.27.32.46.62.93.93,1.4.15.23.23.47.23.74,0,.09,0,.19,0,.28-.03.44-.1.87-.15,1.3-.07.59-.14,1.17-.2,1.75-.08.75-.16,1.5-.23,2.26-.05.61-.1,1.22-.16,1.83,0,.07-.03.15,0,.22.44-.04.88-.1,1.32-.12.73-.04,1.45-.12,2.17-.19,1.24-.13,2.48-.27,3.72-.43.48-.06.93,0,1.34.3.42.3.86.57,1.28.85.15.1.12.09.26,0,.67-.45,1.34-.9,2.01-1.35,1.54-1.04,3.09-2.07,4.62-3.12.42-.28,1.12-.31,1.52,0,.03.03.07.05.1.07,2.17,1.46,4.34,2.93,6.51,4.39.18.12.12.11.3,0,.47-.32.94-.63,1.42-.93.19-.12.39-.19.61-.21.2-.01.4-.01.6.01.61.08,1.22.16,1.83.22.74.08,1.48.16,2.22.24.41.04.82.09,1.22.11.5.04,1,.08,1.5.13.13.01.26.03.41.04,0-.06,0-.12,0-.17-.04-.41-.08-.82-.12-1.23-.03-.31-.04-.63-.07-.94-.07-.72-.15-1.45-.23-2.17-.06-.58-.14-1.16-.2-1.74-.04-.39-.11-.77-.13-1.16-.02-.36.05-.7.26-1.01ZM59.71,25.09c.06-.09.05-.15,0-.23-1.23-1.8-2.46-3.6-3.69-5.4-.02-.03-.03-.06-.08-.07-.05.08-.11.15-.17.24-.89,1.26-1.76,2.52-2.63,3.79-.18.26-.37.52-.56.78-.2.27-.41.54-.65.78.15.15.28.3.4.45.32.41.62.82.91,1.25.86,1.25,1.72,2.51,2.6,3.75.04.05.06.12.13.15.02-.03.04-.06.06-.08,1.23-1.8,2.46-3.6,3.69-5.4ZM94.42,30.44s.06.1.1.13c.05-.02.07-.07.09-.11.21-.29.41-.58.62-.87.71-1.02,1.41-2.05,2.11-3.07.37-.54.74-1.07,1.2-1.55-.14-.14-.27-.28-.39-.43-.31-.4-.61-.81-.9-1.23-.87-1.26-1.73-2.53-2.62-3.78-.04-.05-.06-.11-.13-.15-.02.03-.04.05-.06.08-1.23,1.8-2.46,3.6-3.69,5.4-.08.11-.08.11.01.24,1.21,1.78,2.42,3.55,3.64,5.33ZM73.55,3.1c-1.22.82-2.44,1.65-3.65,2.49-.1.07-.2.14-.3.21.04.05.09.08.13.11,1.79,1.21,3.58,2.42,5.38,3.63.16.11.12.09.27,0,1.78-1.2,3.55-2.4,5.33-3.6.05-.04.11-.06.15-.12-.03-.05-.08-.07-.12-.1-1.19-.84-2.41-1.65-3.61-2.48-.63-.43-1.28-.84-1.84-1.37-.04-.04-.07-.04-.12,0-.12.12-.26.24-.39.35-.4.31-.82.61-1.24.89ZM52.76,1.09c.06.06.09.1.12.13,1.29,1.3,2.59,2.6,3.88,3.9.13.13.28.21.47.25.66.13,1.33.18,2,.24.37.03.74.04,1.1.08.72.08,1.43.14,2.15.22.85.1,1.71.19,2.56.3.1.01.18,0,.26-.06.29-.19.58-.38.86-.57,1.17-.81,2.33-1.62,3.5-2.43,1.02-.7,2.05-1.4,3.07-2.09.05-.04.1-.08.16-.12,0,0,0-.02,0-.03-6.7.06-13.39.11-20.13.17ZM51.04,22.65s.03,0,.04,0c.06-.09.13-.18.19-.27,1.08-1.59,2.18-3.16,3.28-4.73.59-.84,1.2-1.66,1.75-2.53.06-.09.08-.17.07-.28-.05-.39-.1-.77-.15-1.16-.05-.47-.1-.94-.16-1.41-.1-.81-.18-1.62-.25-2.43-.06-.69-.11-1.38-.19-2.07-.03-.28-.07-.56-.14-.83-.03-.1-.07-.19-.15-.27-1.34-1.32-2.68-2.64-4.02-3.96-.03-.03-.04-.07-.1-.05-.06,6.66-.11,13.31-.17,19.96ZM51.33,47.21c1.32-1.3,2.65-2.61,3.97-3.91.1-.09.15-.2.19-.33.09-.34.12-.69.16-1.03.11-.92.15-1.86.25-2.78.08-.71.16-1.42.23-2.13.07-.64.15-1.27.23-1.91.02-.11-.01-.2-.07-.29-.42-.64-.86-1.26-1.3-1.89-1.24-1.76-2.47-3.52-3.68-5.3-.07-.11-.15-.22-.23-.33-.01,0-.03,0-.04,0,.06,6.65.11,13.31.17,19.97.07,0,.09-.05.12-.08ZM72.91,49c-.15-.1-.29-.2-.44-.3-1.28-.86-2.55-1.74-3.82-2.61-1.11-.76-2.19-1.56-3.32-2.29-.09-.06-.17-.08-.28-.07-.81.11-1.62.2-2.42.29-.72.08-1.43.15-2.15.23-.71.07-1.42.1-2.13.18-.38.04-.77.08-1.15.17-.16.04-.29.11-.4.22-1.3,1.31-2.6,2.62-3.91,3.92-.03.03-.07.06-.09.12,6.71.06,13.4.11,20.1.17,0,0,.01-.02.02-.04ZM76.88,46.91c1.28-.87,2.55-1.73,3.82-2.61.06-.04.13-.08.18-.14-.04-.03-.07-.05-.1-.07-1.81-1.22-3.61-2.44-5.42-3.66-.14-.09-.1-.09-.26.02-1.78,1.2-3.57,2.4-5.35,3.61-.05.03-.1.06-.14.11.03.05.09.08.13.11,1.25.88,2.52,1.74,3.79,2.6.57.38,1.14.76,1.63,1.23.05.04.08.06.13,0,.48-.46,1.03-.83,1.58-1.2ZM97.71,48.87s-.06-.07-.08-.09c-1.32-1.33-2.64-2.65-3.96-3.98-.1-.1-.21-.16-.34-.19-.28-.07-.56-.1-.85-.14-1-.13-2.02-.17-3.02-.28-.84-.09-1.69-.19-2.53-.28-.5-.05-1-.12-1.5-.19-.1-.01-.18,0-.26.06-.3.21-.62.4-.92.61-2.14,1.5-4.3,2.99-6.47,4.45-.07.05-.13.09-.2.14,0,.01,0,.03.01.04,6.7-.06,13.4-.11,20.12-.17ZM99.43,27.33s0,0,0-.01c-.02-.01,0,.02-.02-.02-.1.15-.2.29-.3.43-1.23,1.81-2.49,3.61-3.75,5.4-.39.56-.79,1.12-1.16,1.69-.06.09-.09.18-.08.29.05.29.08.58.11.87.06.55.12,1.11.19,1.66.09.73.16,1.47.23,2.21.07.68.1,1.36.18,2.03.04.37.08.74.17,1.1.03.12.09.22.18.31,1.33,1.3,2.65,2.6,3.97,3.91.03.03.05.08.13.09.05-6.66.1-13.31.15-19.96ZM99.44,22.65c-.06-6.65-.11-13.31-.17-19.97-.07.01-.09.06-.12.09-1.32,1.3-2.64,2.6-3.96,3.89-.11.1-.17.22-.2.36-.08.34-.12.68-.16,1.02-.11.91-.15,1.83-.25,2.75-.09.82-.18,1.64-.27,2.46-.06.54-.13,1.09-.2,1.63-.01.09,0,.17.06.25.27.39.52.79.79,1.17.75,1.07,1.52,2.14,2.26,3.22.67.97,1.34,1.94,2,2.91.06.08.12.16.17.25.01,0,.02,0,.03-.01Z"/>
        <g>
          <path class="cls-2" d="M51-.81v51.6H-.92V-.81h51.92ZM27.39.96c.09.06.18.13.27.19,1.71,1.15,3.4,2.32,5.09,3.49.73.51,1.46,1.03,2.21,1.51.09.06.18.09.29.07.39-.06.79-.11,1.18-.15.92-.1,1.84-.2,2.76-.3.88-.09,1.76-.14,2.64-.23.41-.04.83-.09,1.23-.17.17-.04.31-.11.44-.24,1.3-1.31,2.6-2.61,3.89-3.91.03-.03.07-.05.09-.13-6.71-.06-13.4-.11-20.1-.17,0,.01,0,.02,0,.04ZM42.04,33.94c.3-.43.58-.87.87-1.31.14-.22.15-.13,0-.36-1.47-2.16-2.94-4.33-4.43-6.48-.34-.49-.35-1.18,0-1.61.02-.03.04-.06.06-.09,1.47-2.15,2.93-4.3,4.4-6.45.11-.17.11-.11,0-.28-.28-.43-.56-.86-.86-1.28-.25-.35-.33-.74-.3-1.16.03-.42.1-.84.15-1.27.07-.57.13-1.14.19-1.72.08-.75.16-1.49.23-2.24.05-.5.08-1,.13-1.5.02-.2.06-.4.05-.6-.12-.02-.21.01-.31.02-.91.1-1.82.14-2.73.24-.72.07-1.44.16-2.17.23-.7.07-1.39.16-2.09.25-.43.05-.84-.02-1.2-.27-.44-.3-.89-.59-1.33-.88q-.13-.09-.27,0c-.29.19-.58.39-.87.59-1.9,1.28-3.81,2.56-5.71,3.85-.35.24-.71.3-1.12.22-.19-.04-.35-.15-.51-.25-2.18-1.47-4.36-2.94-6.54-4.41q-.14-.09-.28,0c-.47.32-.95.64-1.44.94-.18.11-.37.17-.57.2-.27.03-.54,0-.81-.03-.52-.06-1.03-.13-1.55-.19-.72-.08-1.44-.16-2.16-.23-.46-.04-.92-.1-1.38-.13-.34-.02-.69-.06-1.03-.09-.29-.02-.57-.05-.88-.08,0,.07,0,.11.01.16.04.42.08.84.12,1.25.03.31.04.62.07.92.08.74.16,1.48.24,2.22.06.57.13,1.13.2,1.7.04.38.11.76.13,1.15.02.37-.05.71-.27,1.03-.3.44-.6.89-.89,1.34-.12.18-.12.12,0,.28,1,1.47,2,2.94,3.01,4.41.49.72.98,1.45,1.48,2.17.15.22.23.46.24.73,0,.32-.1.59-.28.85-1.49,2.17-2.97,4.34-4.45,6.52-.11.16-.1.12,0,.27.32.46.63.93.93,1.4.15.23.23.47.23.74,0,.09,0,.19,0,.28-.03.44-.1.87-.15,1.3-.07.59-.14,1.17-.2,1.75-.08.75-.16,1.5-.23,2.26-.05.61-.1,1.22-.16,1.83,0,.07-.03.15,0,.22.44-.04.88-.1,1.32-.12.73-.04,1.45-.12,2.17-.19,1.24-.13,2.48-.27,3.72-.43.48-.06.93,0,1.34.3.42.3.86.57,1.28.85.15.1.12.09.26,0,.67-.45,1.34-.9,2.01-1.35,1.54-1.04,3.09-2.07,4.62-3.12.42-.28,1.12-.31,1.52,0,.03.03.07.05.1.07,2.17,1.46,4.34,2.93,6.51,4.39.18.12.13.11.3,0,.47-.32.94-.63,1.42-.93.19-.12.39-.19.61-.21.2-.01.4-.01.6.01.61.08,1.22.16,1.83.22.74.08,1.48.16,2.22.24.41.04.82.09,1.22.11.5.04,1,.08,1.5.13.13.01.26.03.41.04,0-.06,0-.12,0-.17-.04-.41-.08-.82-.12-1.23-.03-.31-.04-.63-.07-.94-.07-.72-.15-1.45-.23-2.17-.06-.58-.14-1.16-.2-1.74-.04-.39-.11-.77-.13-1.16-.02-.36.05-.7.26-1.01ZM9.53,25.09c.06-.09.05-.15,0-.23-1.23-1.8-2.46-3.6-3.69-5.4-.02-.03-.03-.06-.08-.07-.05.08-.11.15-.17.24-.89,1.26-1.76,2.52-2.63,3.79-.18.26-.37.52-.56.78-.2.27-.41.54-.65.78.15.15.28.3.4.45.32.41.61.82.9,1.25.86,1.25,1.72,2.51,2.6,3.75.04.05.06.12.13.15.02-.03.04-.06.06-.08,1.23-1.8,2.46-3.6,3.69-5.4ZM44.24,30.44s.06.1.1.13c.05-.02.07-.07.09-.11.21-.29.41-.58.62-.87.71-1.02,1.41-2.05,2.11-3.07.37-.54.74-1.07,1.2-1.55-.14-.14-.27-.28-.39-.43-.31-.4-.61-.81-.9-1.23-.87-1.26-1.73-2.53-2.62-3.78-.04-.05-.06-.11-.13-.15-.02.03-.04.05-.06.08-1.23,1.8-2.46,3.6-3.69,5.4-.08.11-.08.11.01.24,1.21,1.78,2.42,3.55,3.64,5.33ZM23.37,3.1c-1.22.82-2.44,1.65-3.64,2.49-.1.07-.2.14-.3.21.04.05.08.08.13.11,1.79,1.21,3.58,2.42,5.38,3.63.16.11.12.09.27,0,1.78-1.2,3.55-2.4,5.33-3.6.05-.04.11-.06.15-.12-.03-.05-.08-.07-.12-.1-1.19-.84-2.41-1.65-3.61-2.48-.63-.43-1.28-.84-1.84-1.37-.04-.04-.07-.04-.11,0-.12.12-.26.24-.39.35-.4.31-.82.61-1.24.89ZM2.58,1.09c.06.06.09.1.12.13,1.29,1.3,2.59,2.6,3.88,3.9.13.13.28.21.47.25.66.13,1.33.18,2,.24.37.03.74.04,1.1.08.72.08,1.43.14,2.15.22.85.1,1.71.19,2.56.3.1.01.18,0,.26-.06.29-.19.58-.38.86-.57,1.17-.81,2.33-1.62,3.5-2.43,1.02-.7,2.05-1.4,3.07-2.09.05-.04.1-.08.16-.12,0,0,0-.02-.01-.03-6.7.06-13.39.11-20.13.17ZM.85,22.65s.03,0,.04,0c.06-.09.13-.18.19-.27,1.08-1.59,2.18-3.16,3.28-4.73.59-.84,1.2-1.66,1.75-2.53.06-.09.08-.17.07-.28-.05-.39-.1-.77-.15-1.16-.05-.47-.1-.94-.16-1.41-.1-.81-.18-1.62-.25-2.43-.06-.69-.11-1.38-.19-2.07-.03-.28-.07-.56-.14-.83-.03-.1-.07-.19-.15-.27-1.34-1.32-2.68-2.64-4.02-3.96-.03-.03-.04-.07-.1-.05-.06,6.66-.11,13.31-.17,19.96ZM1.14,47.21c1.32-1.3,2.65-2.61,3.97-3.91.1-.09.15-.2.19-.33.09-.34.12-.69.16-1.03.11-.92.15-1.86.25-2.78.08-.71.16-1.42.23-2.13.07-.64.15-1.27.23-1.91.02-.11-.01-.2-.07-.29-.42-.64-.86-1.26-1.3-1.89-1.24-1.76-2.47-3.52-3.68-5.3-.08-.11-.15-.22-.23-.33-.01,0-.03,0-.04,0,.06,6.65.11,13.31.17,19.97.07,0,.09-.05.12-.08ZM22.72,49c-.15-.1-.29-.2-.44-.3-1.28-.86-2.55-1.74-3.82-2.61-1.11-.76-2.19-1.56-3.32-2.29-.09-.06-.17-.08-.28-.07-.81.11-1.62.2-2.42.29-.72.08-1.43.15-2.15.23-.71.07-1.42.1-2.13.18-.38.04-.77.08-1.15.17-.16.04-.29.11-.4.22-1.3,1.31-2.6,2.62-3.91,3.92-.03.03-.07.06-.09.12,6.71.06,13.4.11,20.1.17,0,0,.01-.02.02-.04ZM26.69,46.91c1.28-.87,2.55-1.73,3.82-2.61.06-.04.13-.08.18-.14-.04-.03-.07-.05-.1-.07-1.81-1.22-3.61-2.44-5.42-3.66-.14-.09-.1-.09-.26.02-1.78,1.2-3.57,2.4-5.35,3.61-.05.03-.1.06-.14.11.03.05.09.08.13.11,1.25.88,2.52,1.74,3.79,2.6.57.38,1.14.76,1.63,1.23.05.04.08.06.13,0,.48-.46,1.03-.83,1.58-1.2ZM47.53,48.87s-.06-.07-.08-.09c-1.32-1.33-2.64-2.65-3.96-3.98-.1-.1-.21-.16-.34-.19-.28-.07-.56-.1-.85-.14-1-.13-2.02-.17-3.02-.28-.84-.09-1.69-.19-2.53-.28-.5-.05-1-.12-1.5-.19-.1-.01-.18,0-.26.06-.3.21-.62.4-.92.61-2.14,1.5-4.3,2.99-6.47,4.45-.07.05-.13.09-.2.14,0,.01,0,.03.01.04,6.7-.06,13.4-.11,20.12-.17ZM49.25,27.33s0,0,0-.01c-.02-.01,0,.02-.02-.02-.1.15-.2.29-.3.43-1.23,1.81-2.49,3.61-3.75,5.4-.39.56-.79,1.12-1.16,1.69-.06.09-.09.18-.08.29.05.29.08.58.11.87.06.55.12,1.11.19,1.66.09.73.16,1.47.23,2.21.07.68.1,1.36.18,2.03.04.37.08.74.17,1.1.03.12.09.22.18.31,1.33,1.3,2.65,2.6,3.97,3.91.03.03.05.08.13.09.05-6.66.1-13.31.15-19.96ZM49.25,22.65c-.06-6.65-.11-13.31-.17-19.97-.07.01-.09.06-.12.09-1.32,1.3-2.64,2.6-3.96,3.89-.11.1-.17.22-.2.36-.08.34-.12.68-.16,1.02-.11.91-.15,1.83-.25,2.75-.09.82-.18,1.64-.27,2.46-.06.54-.13,1.09-.2,1.63-.01.09,0,.17.06.25.27.39.52.79.79,1.17.75,1.07,1.52,2.14,2.26,3.22.67.97,1.34,1.94,2,2.91.06.08.12.16.17.25.01,0,.02,0,.03-.01Z"/>
          <path class="cls-2" d="M39.42,38.65c.02.15-.02.28-.09.4-.09.16-.27.2-.44.21-.23,0-.45-.03-.68-.09-2.44-.67-4.88-1.35-7.32-2.02-.2-.06-.41-.11-.61-.16-.76-.18-1.46-.51-2.16-.82-.39-.17-.66-.47-.82-.87-.17-.41-.3-.84-.42-1.28-.26-.96-.59-1.9-.93-2.84-.24-.65-.42-1.32-.66-1.97-.08-.21-.15-.42-.23-.63h-.03c-.12.34-.25.67-.36,1.02-.21.67-.44,1.33-.67,1.98-.34.96-.65,1.92-.92,2.89-.07.27-.17.53-.27.79-.17.43-.46.74-.88.92-.72.31-1.44.61-2.2.82-2.28.61-4.55,1.25-6.83,1.88-.34.09-.69.19-1.03.28-.19.05-.39.07-.59.09-.13,0-.25-.02-.36-.08-.19-.1-.24-.28-.24-.47,0-.23.04-.46.1-.69.53-1.9,1.06-3.8,1.59-5.7.23-.83.46-1.66.69-2.49.04-.13.08-.27.13-.4.17-.43.35-.85.53-1.27.2-.49.55-.82,1.06-1,.5-.18,1.02-.32,1.53-.47.93-.27,1.84-.59,2.75-.91.58-.2,1.16-.38,1.75-.58.21-.07.42-.15.64-.23-.06-.06-.14-.07-.2-.09-.64-.25-1.3-.42-1.94-.65-.82-.29-1.64-.56-2.46-.83-.57-.19-1.15-.32-1.72-.51-.21-.07-.41-.14-.6-.23-.28-.13-.49-.33-.65-.6-.07-.12-.13-.25-.19-.38-.12-.27-.23-.55-.35-.82-.23-.52-.35-1.07-.51-1.62-.68-2.43-1.35-4.85-2.04-7.28-.06-.22-.1-.44-.12-.67,0-.09,0-.17.02-.26.07-.23.18-.35.51-.36.24-.01.48.03.71.1,2.48.69,4.97,1.38,7.46,2.05.8.22,1.59.48,2.34.82.05.02.11.05.16.07.46.19.77.53.95,1,.14.39.27.78.38,1.18.26.96.59,1.9.92,2.84.24.65.42,1.32.66,1.97.08.21.15.43.23.65.07-.03.06-.09.08-.14.24-.64.43-1.29.66-1.93.29-.82.57-1.64.84-2.46.17-.52.31-1.06.47-1.59.06-.2.13-.4.21-.59.16-.41.45-.71.85-.89.71-.31,1.42-.61,2.18-.82,2.32-.63,4.63-1.28,6.95-1.91.4-.11.8-.24,1.2-.31.13-.03.26-.03.38-.03.37,0,.54.19.55.56,0,.23-.04.46-.1.69-.61,2.19-1.23,4.38-1.84,6.57-.15.53-.3,1.06-.44,1.6-.05.17-.1.33-.17.49-.17.42-.34.84-.53,1.26-.19.43-.51.73-.95.9-.49.18-1,.33-1.51.47-.97.28-1.92.6-2.86.94-.58.21-1.18.36-1.76.58-.2.07-.39.14-.62.22.39.14.74.27,1.1.38.65.21,1.3.43,1.94.65.99.35,2,.66,3.01.94.27.07.54.17.79.28.38.16.65.42.83.79.17.34.3.7.45,1.04.25.56.38,1.16.54,1.75.67,2.39,1.33,4.77,2,7.16.06.22.09.44.12.67ZM23.35,26.69s-.05,0-.07,0c-.6.17-1.2.32-1.78.54-.59.23-1.2.38-1.8.59-.91.33-1.82.63-2.74.91-.39.12-.79.22-1.18.34-.09.03-.15.07-.18.16-.19.46-.39.92-.56,1.39-.35.94-.65,1.9-.97,2.86-.37,1.12-.72,2.25-1.06,3.38-.01.04-.05.08-.01.13.03,0,.07-.01.1-.03,1.37-.41,2.74-.84,4.1-1.28,1.17-.38,2.33-.76,3.46-1.24.19-.08.29-.18.34-.37.14-.5.28-1,.44-1.49.38-1.21.83-2.41,1.22-3.62.24-.75.53-1.49.7-2.27ZM23.35,23.27s-.01-.04-.02-.06c-.17-.61-.34-1.22-.56-1.82-.26-.7-.46-1.42-.72-2.11-.28-.75-.53-1.51-.76-2.28-.12-.41-.23-.83-.36-1.24-.03-.09-.07-.15-.16-.18-.6-.25-1.2-.49-1.81-.7-1.22-.42-2.45-.81-3.68-1.2-.76-.24-1.53-.47-2.33-.72.03.09.04.15.06.21.47,1.52.95,3.04,1.45,4.55.31.92.62,1.84,1.01,2.74.06.13.08.3.19.38.12.09.28.11.43.15.56.18,1.14.32,1.7.5.98.32,1.94.68,2.92.99.85.27,1.68.6,2.56.8.03,0,.05.02.09,0ZM26.78,23.29c.42-.13.86-.21,1.27-.36.94-.35,1.91-.62,2.86-.96.69-.25,1.38-.47,2.08-.68.45-.14.91-.25,1.36-.4.08-.03.13-.07.16-.15.22-.53.44-1.05.63-1.59.65-1.86,1.25-3.73,1.83-5.61.06-.19.12-.38.18-.59-.08.03-.13.04-.18.05-1.41.43-2.81.87-4.21,1.32-1.08.35-2.15.72-3.2,1.14-.27.11-.4.26-.47.53-.33,1.21-.72,2.41-1.15,3.59-.22.58-.37,1.19-.59,1.77-.23.6-.4,1.21-.56,1.83,0,.03-.04.06,0,.1ZM37.15,37.01c-.01-.05-.02-.07-.02-.08-.45-1.46-.91-2.91-1.39-4.36-.34-1.04-.69-2.08-1.12-3.08-.05-.12-.07-.28-.17-.36-.1-.09-.26-.1-.39-.14-.99-.27-1.96-.58-2.93-.91-.53-.18-1.05-.39-1.59-.55-.89-.26-1.75-.62-2.66-.83-.04-.01-.08-.03-.12,0,0,.02.01.05.02.08.17.61.34,1.21.55,1.8.29.8.54,1.61.82,2.41.23.65.46,1.31.65,1.97.12.41.23.83.36,1.24.03.09.08.16.17.2.81.34,1.63.65,2.46.92,1.55.51,3.11,1.01,4.68,1.49.22.07.43.13.68.2Z"/>
        </g>
        <path class="cls-2" d="M.81-.81v51.6h-51.91V-.81H.81ZM-22.8.96c.09.06.18.13.27.19,1.71,1.15,3.4,2.32,5.09,3.49.73.51,1.46,1.03,2.21,1.51.09.06.18.09.29.07.39-.06.79-.11,1.18-.15.92-.1,1.84-.2,2.76-.3.88-.09,1.76-.14,2.64-.23.41-.04.83-.09,1.23-.17.17-.04.31-.11.44-.24,1.3-1.31,2.6-2.61,3.89-3.91.03-.03.07-.05.09-.13-6.71-.06-13.4-.11-20.1-.17,0,.01,0,.02,0,.04ZM-8.15,33.94c.3-.43.58-.87.87-1.31.14-.22.15-.13,0-.36-1.47-2.16-2.94-4.33-4.43-6.48-.34-.49-.35-1.18,0-1.61.02-.03.04-.06.06-.09,1.47-2.15,2.93-4.3,4.4-6.45.11-.17.11-.11,0-.28-.28-.43-.56-.86-.86-1.28-.25-.35-.33-.74-.3-1.16.03-.42.1-.84.15-1.27.07-.57.13-1.14.19-1.72.08-.75.16-1.49.23-2.24.05-.5.08-1,.13-1.5.02-.2.06-.4.05-.6-.12-.02-.21.01-.31.02-.91.1-1.82.14-2.73.24-.72.07-1.44.16-2.16.23-.7.07-1.39.16-2.09.25-.43.05-.84-.02-1.2-.27-.44-.3-.89-.59-1.33-.88q-.13-.09-.27,0c-.29.19-.58.39-.87.59-1.9,1.28-3.81,2.56-5.71,3.85-.35.24-.71.3-1.12.22-.19-.04-.35-.15-.51-.25-2.18-1.47-4.36-2.94-6.54-4.41q-.14-.09-.28,0c-.47.32-.95.64-1.44.94-.18.11-.37.17-.57.2-.27.03-.54,0-.81-.03-.52-.06-1.03-.13-1.55-.19-.72-.08-1.44-.16-2.17-.23-.46-.04-.92-.1-1.38-.13-.34-.02-.69-.06-1.03-.09-.29-.02-.57-.05-.88-.08,0,.07,0,.11.01.16.04.42.08.84.12,1.25.03.31.04.62.07.92.08.74.16,1.48.24,2.22.06.57.13,1.13.2,1.7.04.38.11.76.13,1.15.02.37-.05.71-.27,1.03-.3.44-.6.89-.89,1.34-.12.18-.12.12,0,.28,1,1.47,2,2.94,3.01,4.41.49.72.98,1.45,1.48,2.17.15.22.23.46.24.73,0,.32-.1.59-.28.85-1.49,2.17-2.97,4.34-4.45,6.52-.11.16-.1.12,0,.27.32.46.63.93.93,1.4.15.23.23.47.23.74,0,.09,0,.19,0,.28-.03.44-.1.87-.15,1.3-.07.59-.14,1.17-.2,1.75-.08.75-.16,1.5-.23,2.26-.05.61-.1,1.22-.16,1.83,0,.07-.03.15,0,.22.44-.04.88-.1,1.32-.12.73-.04,1.45-.12,2.17-.19,1.24-.13,2.48-.27,3.72-.43.48-.06.93,0,1.34.3.42.3.86.57,1.28.85.15.1.12.09.26,0,.67-.45,1.34-.9,2.01-1.35,1.54-1.04,3.09-2.07,4.62-3.12.42-.28,1.12-.31,1.52,0,.03.03.07.05.1.07,2.17,1.46,4.34,2.93,6.51,4.39.18.12.13.11.3,0,.47-.32.94-.63,1.42-.93.19-.12.39-.19.61-.21.2-.01.4-.01.6.01.61.08,1.22.16,1.83.22.74.08,1.48.16,2.22.24.41.04.82.09,1.22.11.5.04,1,.08,1.5.13.13.01.26.03.41.04,0-.06,0-.12,0-.17-.04-.41-.08-.82-.12-1.23-.03-.31-.04-.63-.07-.94-.07-.72-.15-1.45-.23-2.17-.06-.58-.14-1.16-.2-1.74-.04-.39-.11-.77-.13-1.16-.02-.36.05-.7.26-1.01ZM-40.66,25.09c.06-.09.05-.15,0-.23-1.23-1.8-2.46-3.6-3.69-5.4-.02-.03-.03-.06-.08-.07-.05.08-.11.15-.17.24-.89,1.26-1.76,2.52-2.63,3.79-.18.26-.37.52-.56.78-.2.27-.41.54-.65.78.15.15.28.3.4.45.32.41.61.82.9,1.25.86,1.25,1.72,2.51,2.6,3.75.04.05.06.12.13.15.02-.03.04-.06.06-.08,1.23-1.8,2.46-3.6,3.69-5.4ZM-5.95,30.44s.06.1.1.13c.05-.02.07-.07.09-.11.21-.29.42-.58.62-.87.71-1.02,1.41-2.05,2.11-3.07.37-.54.74-1.07,1.2-1.55-.14-.14-.27-.28-.39-.43-.31-.4-.61-.81-.9-1.23-.87-1.26-1.73-2.53-2.62-3.78-.04-.05-.06-.11-.13-.15-.02.03-.04.05-.06.08-1.23,1.8-2.46,3.6-3.69,5.4-.08.11-.08.11.01.24,1.21,1.78,2.42,3.55,3.64,5.33ZM-26.82,3.1c-1.22.82-2.44,1.65-3.65,2.49-.1.07-.2.14-.3.21.04.05.09.08.13.11,1.79,1.21,3.58,2.42,5.38,3.63.16.11.12.09.27,0,1.78-1.2,3.55-2.4,5.33-3.6.05-.04.11-.06.15-.12-.03-.05-.08-.07-.12-.1-1.19-.84-2.41-1.65-3.61-2.48-.63-.43-1.28-.84-1.84-1.37-.04-.04-.07-.04-.11,0-.12.12-.26.24-.39.35-.4.31-.82.61-1.24.89ZM-47.61,1.09c.06.06.09.1.12.13,1.29,1.3,2.59,2.6,3.88,3.9.13.13.28.21.47.25.66.13,1.33.18,2,.24.37.03.74.04,1.1.08.72.08,1.43.14,2.15.22.85.1,1.71.19,2.56.3.1.01.18,0,.26-.06.29-.19.58-.38.86-.57,1.17-.81,2.33-1.62,3.5-2.43,1.02-.7,2.05-1.4,3.07-2.09.05-.04.1-.08.16-.12,0,0,0-.02-.01-.03-6.7.06-13.39.11-20.13.17ZM-49.33,22.65s.03,0,.04,0c.06-.09.13-.18.19-.27,1.08-1.59,2.18-3.16,3.28-4.73.59-.84,1.2-1.66,1.75-2.53.06-.09.08-.17.07-.28-.05-.39-.1-.77-.15-1.16-.05-.47-.1-.94-.16-1.41-.1-.81-.18-1.62-.25-2.43-.06-.69-.11-1.38-.19-2.07-.03-.28-.07-.56-.14-.83-.03-.1-.07-.19-.15-.27-1.34-1.32-2.68-2.64-4.02-3.96-.03-.03-.04-.07-.1-.05-.06,6.66-.11,13.31-.17,19.96ZM-49.04,47.21c1.32-1.3,2.65-2.61,3.97-3.91.1-.09.15-.2.19-.33.09-.34.12-.69.17-1.03.11-.92.15-1.86.25-2.78.08-.71.16-1.42.23-2.13.07-.64.15-1.27.23-1.91.02-.11-.01-.2-.07-.29-.42-.64-.86-1.26-1.3-1.89-1.24-1.76-2.47-3.52-3.68-5.3-.08-.11-.15-.22-.23-.33-.01,0-.03,0-.04,0,.06,6.65.11,13.31.17,19.97.07,0,.09-.05.12-.08ZM-27.46,49c-.15-.1-.29-.2-.44-.3-1.28-.86-2.55-1.74-3.82-2.61-1.11-.76-2.19-1.56-3.32-2.29-.09-.06-.17-.08-.28-.07-.81.11-1.62.2-2.42.29-.72.08-1.43.15-2.15.23-.71.07-1.42.1-2.13.18-.38.04-.77.08-1.15.17-.16.04-.29.11-.4.22-1.3,1.31-2.6,2.62-3.91,3.92-.03.03-.07.06-.09.12,6.71.06,13.4.11,20.1.17,0,0,.01-.02.02-.04ZM-23.49,46.91c1.28-.87,2.55-1.73,3.82-2.61.06-.04.13-.08.18-.14-.04-.03-.07-.05-.1-.07-1.81-1.22-3.61-2.44-5.42-3.66-.14-.09-.1-.09-.26.02-1.78,1.2-3.57,2.4-5.35,3.61-.05.03-.1.06-.14.11.03.05.09.08.13.11,1.25.88,2.52,1.74,3.79,2.6.57.38,1.14.76,1.63,1.23.05.04.08.06.13,0,.48-.46,1.03-.83,1.58-1.2ZM-2.66,48.87s-.06-.07-.08-.09c-1.32-1.33-2.64-2.65-3.96-3.98-.1-.1-.21-.16-.34-.19-.28-.07-.56-.1-.85-.14-1-.13-2.02-.17-3.02-.28-.84-.09-1.69-.19-2.53-.28-.5-.05-1-.12-1.5-.19-.1-.01-.18,0-.26.06-.3.21-.62.4-.92.61-2.14,1.5-4.3,2.99-6.47,4.45-.07.05-.13.09-.2.14,0,.01,0,.03.01.04,6.7-.06,13.4-.11,20.12-.17ZM-.94,27.33s0,0,0-.01c-.02-.01,0,.02-.02-.02-.1.15-.2.29-.3.43-1.23,1.81-2.49,3.61-3.75,5.4-.39.56-.79,1.12-1.16,1.69-.06.09-.09.18-.08.29.05.29.08.58.11.87.06.55.12,1.11.19,1.66.09.73.16,1.47.23,2.21.07.68.1,1.36.18,2.03.04.37.08.74.17,1.1.03.12.09.22.18.31,1.33,1.3,2.65,2.6,3.97,3.91.03.03.05.08.13.09.05-6.66.1-13.31.15-19.96ZM-.93,22.65c-.06-6.65-.11-13.31-.17-19.97-.07.01-.09.06-.12.09-1.32,1.3-2.64,2.6-3.96,3.89-.11.1-.17.22-.2.36-.08.34-.12.68-.16,1.02-.11.91-.15,1.83-.25,2.75-.09.82-.18,1.64-.27,2.46-.06.54-.13,1.09-.2,1.63-.01.09,0,.17.06.25.27.39.52.79.79,1.17.75,1.07,1.52,2.14,2.26,3.22.67.97,1.34,1.94,2,2.91.06.08.12.16.17.25.01,0,.02,0,.03-.01Z"/>
        <path class="cls-2" d="M101.18-51V.61h-51.91v-51.6h51.91ZM77.58-49.22c.09.06.18.13.27.19,1.71,1.15,3.4,2.32,5.09,3.49.73.51,1.46,1.03,2.21,1.51.09.06.18.08.29.07.39-.06.79-.11,1.18-.15.92-.1,1.84-.2,2.76-.3.88-.09,1.76-.14,2.64-.23.41-.04.83-.09,1.23-.17.17-.04.31-.11.44-.24,1.3-1.31,2.6-2.61,3.89-3.91.03-.03.07-.05.09-.13-6.71-.06-13.4-.11-20.1-.17,0,.01,0,.02,0,.04ZM92.22-16.24c.3-.43.58-.87.87-1.31.14-.22.15-.13,0-.36-1.47-2.16-2.94-4.33-4.43-6.48-.33-.49-.35-1.18,0-1.61.02-.03.04-.06.06-.09,1.47-2.15,2.93-4.3,4.4-6.45.11-.17.11-.11,0-.28-.28-.43-.56-.86-.86-1.28-.25-.35-.33-.74-.3-1.16.03-.42.1-.84.15-1.27.07-.57.13-1.14.2-1.72.08-.75.16-1.49.23-2.24.05-.5.08-1,.13-1.5.02-.2.06-.4.05-.6-.12-.02-.21.01-.31.02-.91.1-1.82.14-2.73.24-.72.07-1.44.16-2.17.23-.7.07-1.39.16-2.09.25-.43.05-.84-.02-1.2-.27-.44-.3-.89-.59-1.33-.88-.13-.09-.13-.09-.27,0-.29.19-.58.39-.87.59-1.9,1.28-3.81,2.56-5.71,3.85-.35.24-.71.3-1.12.22-.2-.04-.36-.15-.51-.25-2.18-1.47-4.36-2.94-6.54-4.41q-.14-.09-.28,0c-.47.32-.95.64-1.44.94-.18.11-.37.17-.57.2-.27.03-.54,0-.81-.03-.52-.06-1.03-.13-1.55-.19-.72-.08-1.44-.16-2.16-.23-.46-.04-.92-.1-1.38-.13-.35-.02-.69-.06-1.03-.09-.29-.02-.57-.05-.88-.08,0,.07,0,.11.01.16.04.42.08.83.12,1.25.03.31.04.62.07.92.08.74.16,1.48.24,2.22.06.57.13,1.13.2,1.7.04.38.11.76.13,1.15.02.37-.05.71-.27,1.03-.3.44-.6.89-.89,1.34-.12.18-.12.12,0,.28,1,1.47,2,2.94,3.01,4.41.49.72.98,1.45,1.48,2.17.15.22.23.46.24.73,0,.32-.1.59-.28.85-1.48,2.17-2.97,4.34-4.45,6.52-.11.16-.11.12,0,.27.32.46.62.93.93,1.4.15.23.23.47.23.74,0,.09,0,.19,0,.28-.03.44-.1.87-.15,1.3-.07.58-.14,1.17-.2,1.75-.08.75-.16,1.5-.23,2.26-.05.61-.1,1.22-.16,1.83,0,.07-.03.15,0,.22.44-.04.88-.1,1.32-.12.73-.04,1.45-.12,2.17-.19,1.24-.13,2.48-.27,3.72-.43.48-.06.93,0,1.34.3.42.3.86.57,1.28.85.15.1.12.09.26,0,.67-.45,1.34-.9,2.01-1.35,1.54-1.04,3.09-2.07,4.62-3.12.42-.28,1.12-.31,1.52,0,.03.03.07.05.1.07,2.17,1.46,4.34,2.93,6.51,4.39.18.12.12.11.3,0,.47-.32.94-.63,1.42-.93.19-.12.39-.19.61-.21.2-.01.4-.01.6.01.61.08,1.22.16,1.83.22.74.08,1.48.16,2.22.24.41.04.82.09,1.22.11.5.04,1,.08,1.5.13.13.01.26.03.41.04,0-.06,0-.12,0-.17-.04-.41-.08-.82-.12-1.23-.03-.31-.04-.63-.07-.94-.07-.72-.15-1.45-.23-2.17-.06-.58-.14-1.16-.2-1.74-.04-.39-.11-.77-.13-1.16-.02-.36.05-.7.26-1.01ZM59.71-25.09c.06-.09.05-.15,0-.23-1.23-1.8-2.46-3.6-3.69-5.4-.02-.03-.03-.06-.08-.07-.05.08-.11.15-.17.24-.89,1.26-1.76,2.52-2.63,3.79-.18.26-.37.52-.56.78-.2.27-.41.54-.65.78.15.15.28.3.4.45.32.41.62.82.91,1.25.86,1.25,1.72,2.51,2.6,3.75.04.05.06.12.13.15.02-.03.04-.06.06-.08,1.23-1.8,2.46-3.6,3.69-5.4ZM94.42-19.74s.06.1.1.13c.05-.02.07-.07.09-.11.21-.29.41-.58.62-.87.71-1.02,1.41-2.05,2.11-3.07.37-.54.74-1.07,1.2-1.55-.14-.14-.27-.28-.39-.43-.31-.4-.61-.81-.9-1.23-.87-1.26-1.73-2.53-2.62-3.78-.04-.05-.06-.11-.13-.15-.02.03-.04.05-.06.08-1.23,1.8-2.46,3.6-3.69,5.4-.08.11-.08.11.01.24,1.21,1.78,2.42,3.55,3.64,5.33ZM73.55-47.09c-1.22.82-2.44,1.65-3.65,2.49-.1.07-.2.14-.3.21.04.05.09.08.13.11,1.79,1.21,3.58,2.42,5.38,3.63.16.11.12.09.27,0,1.78-1.2,3.55-2.4,5.33-3.6.05-.04.11-.06.15-.12-.03-.05-.08-.07-.12-.1-1.19-.84-2.41-1.65-3.61-2.48-.63-.43-1.28-.84-1.84-1.37-.04-.04-.07-.04-.12,0-.12.12-.26.24-.39.35-.4.31-.82.61-1.24.89ZM52.76-49.09c.06.06.09.1.12.13,1.29,1.3,2.59,2.6,3.88,3.9.13.13.28.21.47.25.66.13,1.33.18,2,.24.37.03.74.04,1.1.08.72.08,1.43.14,2.15.22.85.1,1.71.19,2.56.3.1.01.18,0,.26-.06.29-.19.58-.37.86-.57,1.17-.81,2.33-1.62,3.5-2.43,1.02-.7,2.05-1.4,3.07-2.09.05-.04.1-.08.16-.12,0,0,0-.02,0-.03-6.7.06-13.39.11-20.13.17ZM51.04-27.54s.03,0,.04,0c.06-.09.13-.18.19-.27,1.08-1.59,2.18-3.16,3.28-4.73.59-.84,1.2-1.66,1.75-2.53.06-.09.08-.17.07-.28-.05-.39-.1-.77-.15-1.16-.05-.47-.1-.94-.16-1.41-.1-.81-.18-1.62-.25-2.43-.06-.69-.11-1.38-.19-2.07-.03-.28-.07-.56-.14-.83-.03-.1-.07-.19-.15-.27-1.34-1.32-2.68-2.64-4.02-3.96-.03-.03-.04-.07-.1-.05-.06,6.66-.11,13.31-.17,19.96ZM51.33-2.98c1.32-1.3,2.65-2.61,3.97-3.91.1-.09.15-.2.19-.33.09-.34.12-.69.16-1.03.11-.92.15-1.86.25-2.78.08-.71.16-1.42.23-2.13.07-.64.15-1.27.23-1.91.02-.11-.01-.2-.07-.29-.42-.64-.86-1.26-1.3-1.89-1.24-1.76-2.47-3.52-3.68-5.3-.07-.11-.15-.22-.23-.33-.01,0-.03,0-.04,0,.06,6.65.11,13.31.17,19.97.07,0,.09-.05.12-.08ZM72.91-1.18c-.15-.1-.29-.2-.44-.3-1.28-.86-2.55-1.74-3.82-2.61-1.11-.76-2.19-1.56-3.32-2.29-.09-.06-.17-.08-.28-.07-.81.11-1.62.2-2.42.29-.72.08-1.43.15-2.15.23-.71.07-1.42.1-2.13.18-.38.04-.77.08-1.15.17-.16.04-.29.11-.4.22-1.3,1.31-2.6,2.62-3.91,3.92-.03.03-.07.06-.09.12,6.71.06,13.4.11,20.1.17,0,0,.01-.02.02-.04ZM76.88-3.28c1.28-.87,2.55-1.73,3.82-2.61.06-.04.13-.08.18-.14-.04-.03-.07-.05-.1-.07-1.81-1.22-3.61-2.44-5.42-3.66-.14-.09-.1-.09-.26.02-1.78,1.2-3.57,2.4-5.35,3.61-.05.03-.1.06-.14.11.03.05.09.08.13.11,1.25.88,2.52,1.74,3.79,2.6.57.38,1.14.76,1.63,1.23.05.04.08.06.13,0,.48-.46,1.03-.83,1.58-1.2ZM97.71-1.31s-.06-.07-.08-.09c-1.32-1.33-2.64-2.65-3.96-3.98-.1-.1-.21-.16-.34-.19-.28-.07-.56-.1-.85-.14-1-.13-2.02-.17-3.02-.28-.84-.09-1.69-.19-2.53-.28-.5-.05-1-.12-1.5-.19-.1-.01-.18,0-.26.06-.3.21-.62.4-.92.61-2.14,1.5-4.3,2.99-6.47,4.45-.07.05-.13.09-.2.14,0,.01,0,.03.01.04,6.7-.06,13.4-.11,20.12-.17ZM99.43-22.85s0,0,0-.01c-.02-.01,0,.02-.02-.02-.1.15-.2.29-.3.43-1.23,1.81-2.49,3.61-3.75,5.4-.39.56-.79,1.12-1.16,1.69-.06.09-.09.18-.08.29.05.29.08.58.11.87.06.55.12,1.11.19,1.66.09.73.16,1.47.23,2.21.07.68.1,1.36.18,2.03.04.37.08.74.17,1.1.03.12.09.22.18.31,1.33,1.3,2.65,2.6,3.97,3.91.03.03.05.08.13.08.05-6.66.1-13.31.15-19.96ZM99.44-27.54c-.06-6.65-.11-13.31-.17-19.97-.07.01-.09.06-.12.09-1.32,1.3-2.64,2.6-3.96,3.89-.11.1-.17.22-.2.36-.08.34-.12.68-.16,1.02-.11.91-.15,1.83-.25,2.75-.09.82-.18,1.64-.27,2.46-.06.54-.13,1.09-.2,1.63-.01.09,0,.17.06.25.27.39.52.79.79,1.17.75,1.07,1.52,2.14,2.26,3.22.67.97,1.34,1.94,2,2.91.06.08.12.16.17.25.01,0,.02,0,.03-.01Z"/>
        <path class="cls-2" d="M51-51V.61H-.92v-51.6h51.92ZM27.39-49.22c.09.06.18.13.27.19,1.71,1.15,3.4,2.32,5.09,3.49.73.51,1.46,1.03,2.21,1.51.09.06.18.08.29.07.39-.06.79-.11,1.18-.15.92-.1,1.84-.2,2.76-.3.88-.09,1.76-.14,2.64-.23.41-.04.83-.09,1.23-.17.17-.04.31-.11.44-.24,1.3-1.31,2.6-2.61,3.89-3.91.03-.03.07-.05.09-.13-6.71-.06-13.4-.11-20.1-.17,0,.01,0,.02,0,.04ZM42.04-16.24c.3-.43.58-.87.87-1.31.14-.22.15-.13,0-.36-1.47-2.16-2.94-4.33-4.43-6.48-.34-.49-.35-1.18,0-1.61.02-.03.04-.06.06-.09,1.47-2.15,2.93-4.3,4.4-6.45.11-.17.11-.11,0-.28-.28-.43-.56-.86-.86-1.28-.25-.35-.33-.74-.3-1.16.03-.42.1-.84.15-1.27.07-.57.13-1.14.19-1.72.08-.75.16-1.49.23-2.24.05-.5.08-1,.13-1.5.02-.2.06-.4.05-.6-.12-.02-.21.01-.31.02-.91.1-1.82.14-2.73.24-.72.07-1.44.16-2.17.23-.7.07-1.39.16-2.09.25-.43.05-.84-.02-1.2-.27-.44-.3-.89-.59-1.33-.88q-.13-.09-.27,0c-.29.19-.58.39-.87.59-1.9,1.28-3.81,2.56-5.71,3.85-.35.24-.71.3-1.12.22-.19-.04-.35-.15-.51-.25-2.18-1.47-4.36-2.94-6.54-4.41q-.14-.09-.28,0c-.47.32-.95.64-1.44.94-.18.11-.37.17-.57.2-.27.03-.54,0-.81-.03-.52-.06-1.03-.13-1.55-.19-.72-.08-1.44-.16-2.16-.23-.46-.04-.92-.1-1.38-.13-.34-.02-.69-.06-1.03-.09-.29-.02-.57-.05-.88-.08,0,.07,0,.11.01.16.04.42.08.83.12,1.25.03.31.04.62.07.92.08.74.16,1.48.24,2.22.06.57.13,1.13.2,1.7.04.38.11.76.13,1.15.02.37-.05.71-.27,1.03-.3.44-.6.89-.89,1.34-.12.18-.12.12,0,.28,1,1.47,2,2.94,3.01,4.41.49.72.98,1.45,1.48,2.17.15.22.23.46.24.73,0,.32-.1.59-.28.85-1.49,2.17-2.97,4.34-4.45,6.52-.11.16-.1.12,0,.27.32.46.63.93.93,1.4.15.23.23.47.23.74,0,.09,0,.19,0,.28-.03.44-.1.87-.15,1.3-.07.58-.14,1.17-.2,1.75-.08.75-.16,1.5-.23,2.26-.05.61-.1,1.22-.16,1.83,0,.07-.03.15,0,.22.44-.04.88-.1,1.32-.12.73-.04,1.45-.12,2.17-.19,1.24-.13,2.48-.27,3.72-.43.48-.06.93,0,1.34.3.42.3.86.57,1.28.85.15.1.12.09.26,0,.67-.45,1.34-.9,2.01-1.35,1.54-1.04,3.09-2.07,4.62-3.12.42-.28,1.12-.31,1.52,0,.03.03.07.05.1.07,2.17,1.46,4.34,2.93,6.51,4.39.18.12.13.11.3,0,.47-.32.94-.63,1.42-.93.19-.12.39-.19.61-.21.2-.01.4-.01.6.01.61.08,1.22.16,1.83.22.74.08,1.48.16,2.22.24.41.04.82.09,1.22.11.5.04,1,.08,1.5.13.13.01.26.03.41.04,0-.06,0-.12,0-.17-.04-.41-.08-.82-.12-1.23-.03-.31-.04-.63-.07-.94-.07-.72-.15-1.45-.23-2.17-.06-.58-.14-1.16-.2-1.74-.04-.39-.11-.77-.13-1.16-.02-.36.05-.7.26-1.01ZM9.53-25.09c.06-.09.05-.15,0-.23-1.23-1.8-2.46-3.6-3.69-5.4-.02-.03-.03-.06-.08-.07-.05.08-.11.15-.17.24-.89,1.26-1.76,2.52-2.63,3.79-.18.26-.37.52-.56.78-.2.27-.41.54-.65.78.15.15.28.3.4.45.32.41.61.82.9,1.25.86,1.25,1.72,2.51,2.6,3.75.04.05.06.12.13.15.02-.03.04-.06.06-.08,1.23-1.8,2.46-3.6,3.69-5.4ZM44.24-19.74s.06.1.1.13c.05-.02.07-.07.09-.11.21-.29.41-.58.62-.87.71-1.02,1.41-2.05,2.11-3.07.37-.54.74-1.07,1.2-1.55-.14-.14-.27-.28-.39-.43-.31-.4-.61-.81-.9-1.23-.87-1.26-1.73-2.53-2.62-3.78-.04-.05-.06-.11-.13-.15-.02.03-.04.05-.06.08-1.23,1.8-2.46,3.6-3.69,5.4-.08.11-.08.11.01.24,1.21,1.78,2.42,3.55,3.64,5.33ZM23.37-47.09c-1.22.82-2.44,1.65-3.64,2.49-.1.07-.2.14-.3.21.04.05.08.08.13.11,1.79,1.21,3.58,2.42,5.38,3.63.16.11.12.09.27,0,1.78-1.2,3.55-2.4,5.33-3.6.05-.04.11-.06.15-.12-.03-.05-.08-.07-.12-.1-1.19-.84-2.41-1.65-3.61-2.48-.63-.43-1.28-.84-1.84-1.37-.04-.04-.07-.04-.11,0-.12.12-.26.24-.39.35-.4.31-.82.61-1.24.89ZM2.58-49.09c.06.06.09.1.12.13,1.29,1.3,2.59,2.6,3.88,3.9.13.13.28.21.47.25.66.13,1.33.18,2,.24.37.03.74.04,1.1.08.72.08,1.43.14,2.15.22.85.1,1.71.19,2.56.3.1.01.18,0,.26-.06.29-.19.58-.37.86-.57,1.17-.81,2.33-1.62,3.5-2.43,1.02-.7,2.05-1.4,3.07-2.09.05-.04.1-.08.16-.12,0,0,0-.02-.01-.03-6.7.06-13.39.11-20.13.17ZM.85-27.54s.03,0,.04,0c.06-.09.13-.18.19-.27,1.08-1.59,2.18-3.16,3.28-4.73.59-.84,1.2-1.66,1.75-2.53.06-.09.08-.17.07-.28-.05-.39-.1-.77-.15-1.16-.05-.47-.1-.94-.16-1.41-.1-.81-.18-1.62-.25-2.43-.06-.69-.11-1.38-.19-2.07-.03-.28-.07-.56-.14-.83-.03-.1-.07-.19-.15-.27-1.34-1.32-2.68-2.64-4.02-3.96-.03-.03-.04-.07-.1-.05-.06,6.66-.11,13.31-.17,19.96ZM1.14-2.98c1.32-1.3,2.65-2.61,3.97-3.91.1-.09.15-.2.19-.33.09-.34.12-.69.16-1.03.11-.92.15-1.86.25-2.78.08-.71.16-1.42.23-2.13.07-.64.15-1.27.23-1.91.02-.11-.01-.2-.07-.29-.42-.64-.86-1.26-1.3-1.89-1.24-1.76-2.47-3.52-3.68-5.3-.08-.11-.15-.22-.23-.33-.01,0-.03,0-.04,0,.06,6.65.11,13.31.17,19.97.07,0,.09-.05.12-.08ZM22.72-1.18c-.15-.1-.29-.2-.44-.3-1.28-.86-2.55-1.74-3.82-2.61-1.11-.76-2.19-1.56-3.32-2.29-.09-.06-.17-.08-.28-.07-.81.11-1.62.2-2.42.29-.72.08-1.43.15-2.15.23-.71.07-1.42.1-2.13.18-.38.04-.77.08-1.15.17-.16.04-.29.11-.4.22-1.3,1.31-2.6,2.62-3.91,3.92-.03.03-.07.06-.09.12,6.71.06,13.4.11,20.1.17,0,0,.01-.02.02-.04ZM26.69-3.28c1.28-.87,2.55-1.73,3.82-2.61.06-.04.13-.08.18-.14-.04-.03-.07-.05-.1-.07-1.81-1.22-3.61-2.44-5.42-3.66-.14-.09-.1-.09-.26.02-1.78,1.2-3.57,2.4-5.35,3.61-.05.03-.1.06-.14.11.03.05.09.08.13.11,1.25.88,2.52,1.74,3.79,2.6.57.38,1.14.76,1.63,1.23.05.04.08.06.13,0,.48-.46,1.03-.83,1.58-1.2ZM47.53-1.31s-.06-.07-.08-.09c-1.32-1.33-2.64-2.65-3.96-3.98-.1-.1-.21-.16-.34-.19-.28-.07-.56-.1-.85-.14-1-.13-2.02-.17-3.02-.28-.84-.09-1.69-.19-2.53-.28-.5-.05-1-.12-1.5-.19-.1-.01-.18,0-.26.06-.3.21-.62.4-.92.61-2.14,1.5-4.3,2.99-6.47,4.45-.07.05-.13.09-.2.14,0,.01,0,.03.01.04,6.7-.06,13.4-.11,20.12-.17ZM49.25-22.85s0,0,0-.01c-.02-.01,0,.02-.02-.02-.1.15-.2.29-.3.43-1.23,1.81-2.49,3.61-3.75,5.4-.39.56-.79,1.12-1.16,1.69-.06.09-.09.18-.08.29.05.29.08.58.11.87.06.55.12,1.11.19,1.66.09.73.16,1.47.23,2.21.07.68.1,1.36.18,2.03.04.37.08.74.17,1.1.03.12.09.22.18.31,1.33,1.3,2.65,2.6,3.97,3.91.03.03.05.08.13.08.05-6.66.1-13.31.15-19.96ZM49.25-27.54c-.06-6.65-.11-13.31-.17-19.97-.07.01-.09.06-.12.09-1.32,1.3-2.64,2.6-3.96,3.89-.11.1-.17.22-.2.36-.08.34-.12.68-.16,1.02-.11.91-.15,1.83-.25,2.75-.09.82-.18,1.64-.27,2.46-.06.54-.13,1.09-.2,1.63-.01.09,0,.17.06.25.27.39.52.79.79,1.17.75,1.07,1.52,2.14,2.26,3.22.67.97,1.34,1.94,2,2.91.06.08.12.16.17.25.01,0,.02,0,.03-.01Z"/>
        <path class="cls-2" d="M.81-51V.61h-51.91v-51.6H.81ZM-22.8-49.22c.09.06.18.13.27.19,1.71,1.15,3.4,2.32,5.09,3.49.73.51,1.46,1.03,2.21,1.51.09.06.18.08.29.07.39-.06.79-.11,1.18-.15.92-.1,1.84-.2,2.76-.3.88-.09,1.76-.14,2.64-.23.41-.04.83-.09,1.23-.17.17-.04.31-.11.44-.24,1.3-1.31,2.6-2.61,3.89-3.91.03-.03.07-.05.09-.13-6.71-.06-13.4-.11-20.1-.17,0,.01,0,.02,0,.04ZM-8.15-16.24c.3-.43.58-.87.87-1.31.14-.22.15-.13,0-.36-1.47-2.16-2.94-4.33-4.43-6.48-.34-.49-.35-1.18,0-1.61.02-.03.04-.06.06-.09,1.47-2.15,2.93-4.3,4.4-6.45.11-.17.11-.11,0-.28-.28-.43-.56-.86-.86-1.28-.25-.35-.33-.74-.3-1.16.03-.42.1-.84.15-1.27.07-.57.13-1.14.19-1.72.08-.75.16-1.49.23-2.24.05-.5.08-1,.13-1.5.02-.2.06-.4.05-.6-.12-.02-.21.01-.31.02-.91.1-1.82.14-2.73.24-.72.07-1.44.16-2.16.23-.7.07-1.39.16-2.09.25-.43.05-.84-.02-1.2-.27-.44-.3-.89-.59-1.33-.88q-.13-.09-.27,0c-.29.19-.58.39-.87.59-1.9,1.28-3.81,2.56-5.71,3.85-.35.24-.71.3-1.12.22-.19-.04-.35-.15-.51-.25-2.18-1.47-4.36-2.94-6.54-4.41q-.14-.09-.28,0c-.47.32-.95.64-1.44.94-.18.11-.37.17-.57.2-.27.03-.54,0-.81-.03-.52-.06-1.03-.13-1.55-.19-.72-.08-1.44-.16-2.17-.23-.46-.04-.92-.1-1.38-.13-.34-.02-.69-.06-1.03-.09-.29-.02-.57-.05-.88-.08,0,.07,0,.11.01.16.04.42.08.83.12,1.25.03.31.04.62.07.92.08.74.16,1.48.24,2.22.06.57.13,1.13.2,1.7.04.38.11.76.13,1.15.02.37-.05.71-.27,1.03-.3.44-.6.89-.89,1.34-.12.18-.12.12,0,.28,1,1.47,2,2.94,3.01,4.41.49.72.98,1.45,1.48,2.17.15.22.23.46.24.73,0,.32-.1.59-.28.85-1.49,2.17-2.97,4.34-4.45,6.52-.11.16-.1.12,0,.27.32.46.63.93.93,1.4.15.23.23.47.23.74,0,.09,0,.19,0,.28-.03.44-.1.87-.15,1.3-.07.58-.14,1.17-.2,1.75-.08.75-.16,1.5-.23,2.26-.05.61-.1,1.22-.16,1.83,0,.07-.03.15,0,.22.44-.04.88-.1,1.32-.12.73-.04,1.45-.12,2.17-.19,1.24-.13,2.48-.27,3.72-.43.48-.06.93,0,1.34.3.42.3.86.57,1.28.85.15.1.12.09.26,0,.67-.45,1.34-.9,2.01-1.35,1.54-1.04,3.09-2.07,4.62-3.12.42-.28,1.12-.31,1.52,0,.03.03.07.05.1.07,2.17,1.46,4.34,2.93,6.51,4.39.18.12.13.11.3,0,.47-.32.94-.63,1.42-.93.19-.12.39-.19.61-.21.2-.01.4-.01.6.01.61.08,1.22.16,1.83.22.74.08,1.48.16,2.22.24.41.04.82.09,1.22.11.5.04,1,.08,1.5.13.13.01.26.03.41.04,0-.06,0-.12,0-.17-.04-.41-.08-.82-.12-1.23-.03-.31-.04-.63-.07-.94-.07-.72-.15-1.45-.23-2.17-.06-.58-.14-1.16-.2-1.74-.04-.39-.11-.77-.13-1.16-.02-.36.05-.7.26-1.01ZM-40.66-25.09c.06-.09.05-.15,0-.23-1.23-1.8-2.46-3.6-3.69-5.4-.02-.03-.03-.06-.08-.07-.05.08-.11.15-.17.24-.89,1.26-1.76,2.52-2.63,3.79-.18.26-.37.52-.56.78-.2.27-.41.54-.65.78.15.15.28.3.4.45.32.41.61.82.9,1.25.86,1.25,1.72,2.51,2.6,3.75.04.05.06.12.13.15.02-.03.04-.06.06-.08,1.23-1.8,2.46-3.6,3.69-5.4ZM-5.95-19.74s.06.1.1.13c.05-.02.07-.07.09-.11.21-.29.42-.58.62-.87.71-1.02,1.41-2.05,2.11-3.07.37-.54.74-1.07,1.2-1.55-.14-.14-.27-.28-.39-.43-.31-.4-.61-.81-.9-1.23-.87-1.26-1.73-2.53-2.62-3.78-.04-.05-.06-.11-.13-.15-.02.03-.04.05-.06.08-1.23,1.8-2.46,3.6-3.69,5.4-.08.11-.08.11.01.24,1.21,1.78,2.42,3.55,3.64,5.33ZM-26.82-47.09c-1.22.82-2.44,1.65-3.65,2.49-.1.07-.2.14-.3.21.04.05.09.08.13.11,1.79,1.21,3.58,2.42,5.38,3.63.16.11.12.09.27,0,1.78-1.2,3.55-2.4,5.33-3.6.05-.04.11-.06.15-.12-.03-.05-.08-.07-.12-.1-1.19-.84-2.41-1.65-3.61-2.48-.63-.43-1.28-.84-1.84-1.37-.04-.04-.07-.04-.11,0-.12.12-.26.24-.39.35-.4.31-.82.61-1.24.89ZM-47.61-49.09c.06.06.09.1.12.13,1.29,1.3,2.59,2.6,3.88,3.9.13.13.28.21.47.25.66.13,1.33.18,2,.24.37.03.74.04,1.1.08.72.08,1.43.14,2.15.22.85.1,1.71.19,2.56.3.1.01.18,0,.26-.06.29-.19.58-.37.86-.57,1.17-.81,2.33-1.62,3.5-2.43,1.02-.7,2.05-1.4,3.07-2.09.05-.04.1-.08.16-.12,0,0,0-.02-.01-.03-6.7.06-13.39.11-20.13.17ZM-49.33-27.54s.03,0,.04,0c.06-.09.13-.18.19-.27,1.08-1.59,2.18-3.16,3.28-4.73.59-.84,1.2-1.66,1.75-2.53.06-.09.08-.17.07-.28-.05-.39-.1-.77-.15-1.16-.05-.47-.1-.94-.16-1.41-.1-.81-.18-1.62-.25-2.43-.06-.69-.11-1.38-.19-2.07-.03-.28-.07-.56-.14-.83-.03-.1-.07-.19-.15-.27-1.34-1.32-2.68-2.64-4.02-3.96-.03-.03-.04-.07-.1-.05-.06,6.66-.11,13.31-.17,19.96ZM-49.04-2.98c1.32-1.3,2.65-2.61,3.97-3.91.1-.09.15-.2.19-.33.09-.34.12-.69.17-1.03.11-.92.15-1.86.25-2.78.08-.71.16-1.42.23-2.13.07-.64.15-1.27.23-1.91.02-.11-.01-.2-.07-.29-.42-.64-.86-1.26-1.3-1.89-1.24-1.76-2.47-3.52-3.68-5.3-.08-.11-.15-.22-.23-.33-.01,0-.03,0-.04,0,.06,6.65.11,13.31.17,19.97.07,0,.09-.05.12-.08ZM-27.46-1.18c-.15-.1-.29-.2-.44-.3-1.28-.86-2.55-1.74-3.82-2.61-1.11-.76-2.19-1.56-3.32-2.29-.09-.06-.17-.08-.28-.07-.81.11-1.62.2-2.42.29-.72.08-1.43.15-2.15.23-.71.07-1.42.1-2.13.18-.38.04-.77.08-1.15.17-.16.04-.29.11-.4.22-1.3,1.31-2.6,2.62-3.91,3.92-.03.03-.07.06-.09.12,6.71.06,13.4.11,20.1.17,0,0,.01-.02.02-.04ZM-23.49-3.28c1.28-.87,2.55-1.73,3.82-2.61.06-.04.13-.08.18-.14-.04-.03-.07-.05-.1-.07-1.81-1.22-3.61-2.44-5.42-3.66-.14-.09-.1-.09-.26.02-1.78,1.2-3.57,2.4-5.35,3.61-.05.03-.1.06-.14.11.03.05.09.08.13.11,1.25.88,2.52,1.74,3.79,2.6.57.38,1.14.76,1.63,1.23.05.04.08.06.13,0,.48-.46,1.03-.83,1.58-1.2ZM-2.66-1.31s-.06-.07-.08-.09c-1.32-1.33-2.64-2.65-3.96-3.98-.1-.1-.21-.16-.34-.19-.28-.07-.56-.1-.85-.14-1-.13-2.02-.17-3.02-.28-.84-.09-1.69-.19-2.53-.28-.5-.05-1-.12-1.5-.19-.1-.01-.18,0-.26.06-.3.21-.62.4-.92.61-2.14,1.5-4.3,2.99-6.47,4.45-.07.05-.13.09-.2.14,0,.01,0,.03.01.04,6.7-.06,13.4-.11,20.12-.17ZM-.94-22.85s0,0,0-.01c-.02-.01,0,.02-.02-.02-.1.15-.2.29-.3.43-1.23,1.81-2.49,3.61-3.75,5.4-.39.56-.79,1.12-1.16,1.69-.06.09-.09.18-.08.29.05.29.08.58.11.87.06.55.12,1.11.19,1.66.09.73.16,1.47.23,2.21.07.68.1,1.36.18,2.03.04.37.08.74.17,1.1.03.12.09.22.18.31,1.33,1.3,2.65,2.6,3.97,3.91.03.03.05.08.13.08.05-6.66.1-13.31.15-19.96ZM-.93-27.54c-.06-6.65-.11-13.31-.17-19.97-.07.01-.09.06-.12.09-1.32,1.3-2.64,2.6-3.96,3.89-.11.1-.17.22-.2.36-.08.34-.12.68-.16,1.02-.11.91-.15,1.83-.25,2.75-.09.82-.18,1.64-.27,2.46-.06.54-.13,1.09-.2,1.63-.01.09,0,.17.06.25.27.39.52.79.79,1.17.75,1.07,1.52,2.14,2.26,3.22.67.97,1.34,1.94,2,2.91.06.08.12.16.17.25.01,0,.02,0,.03-.01Z"/>
      </g>
    </pattern>
  </defs>
  <g id="Layer_16">
    <rect class="cls-3" x="0" y="0" width="150.65" height="150.65"/>
  </g>
</svg>